<svg width="24" height="24" viewBox="0 0 24 24" fill="none" xmlns="http://www.w3.org/2000/svg">
<g clip-path="url(#clip0_10_461)">
<rect width="24" height="24" fill="white"/>
<path d="M12.001 2.5C12.3561 2.50006 12.7 2.62624 12.9717 2.85645C13.2434 3.08675 13.4259 3.40638 13.4854 3.75879C13.5157 3.9386 13.6413 4.08835 13.8135 4.14844C14.8951 4.52602 15.8333 5.23221 16.4971 6.16895C17.1607 7.10568 17.5168 8.22654 17.5166 9.37598V14.3379C17.5167 14.4759 17.5742 14.6077 17.6748 14.7021L20.4463 17.2969C20.4709 17.3201 20.4886 17.3503 20.4961 17.3838C20.5036 17.4173 20.5008 17.4525 20.4883 17.4844C20.4757 17.5163 20.4536 17.5434 20.4258 17.5625C20.398 17.5815 20.3654 17.5917 20.332 17.5918H3.66895C3.63543 17.5919 3.60221 17.5825 3.57422 17.5635C3.5462 17.5444 3.52434 17.5164 3.51172 17.4844C3.49922 17.4525 3.49639 17.4173 3.50391 17.3838C3.5077 17.367 3.51404 17.3506 3.52246 17.3359L3.55469 17.2959L6.32617 14.7021C6.42696 14.6077 6.48426 14.476 6.48438 14.3379V9.37598C6.48413 8.22644 6.84119 7.10573 7.50488 6.16895C8.16867 5.23212 9.10675 4.52599 10.1885 4.14844C10.3606 4.08831 10.4863 3.93854 10.5166 3.75879C10.5761 3.40647 10.7577 3.08673 11.0293 2.85645C11.301 2.62611 11.6457 2.5 12.001 2.5Z" fill="black" stroke="black" stroke-linecap="round" stroke-linejoin="round"/>
<path d="M9 19C9.21852 19.5847 9.62449 20.0911 10.1619 20.4494C10.6992 20.8076 11.3415 21 12 21C12.6585 21 13.3008 20.8076 13.8381 20.4494C14.3755 20.0911 14.7815 19.5847 15 19H9Z" fill="black" stroke="black"/>
</g>
<defs>
<clipPath id="clip0_10_461">
<rect width="24" height="24" fill="white"/>
</clipPath>
</defs>
</svg>
