<svg width="24" height="24" viewBox="0 0 24 24" fill="none" xmlns="http://www.w3.org/2000/svg">
<g clip-path="url(#clip0_10_464)">
<rect width="24" height="24" fill="white"/>
<path d="M7.83301 2C7.32601 2 6.85301 2.216 6.51501 2.576C6.18275 2.93274 5.99863 3.4025 6.00001 3.89V21C6.00013 21.1883 6.05343 21.3728 6.15379 21.5322C6.25415 21.6916 6.39748 21.8194 6.56728 21.9009C6.73708 21.9824 6.92644 22.0143 7.11357 21.9929C7.3007 21.9715 7.47798 21.8977 7.62501 21.78L12 18.28L16.375 21.78C16.522 21.8977 16.6993 21.9715 16.8864 21.9929C17.0736 22.0143 17.2629 21.9824 17.4327 21.9009C17.6025 21.8194 17.7459 21.6916 17.8462 21.5322C17.9466 21.3728 17.9999 21.1883 18 21V3.889C18 3.408 17.822 2.935 17.485 2.576C17.3167 2.39454 17.1128 2.24974 16.886 2.15063C16.6593 2.05152 16.4145 2.00025 16.167 2H7.83301Z" fill="black"/>
</g>
<defs>
<clipPath id="clip0_10_464">
<rect width="24" height="24" fill="white"/>
</clipPath>
</defs>
</svg>
