<svg width="24" height="24" viewBox="0 0 24 24" fill="none" xmlns="http://www.w3.org/2000/svg">
<g clip-path="url(#clip0_10_465)">
<rect width="24" height="24" fill="white"/>
<path d="M16.168 2.5L16.3027 2.50684C16.4363 2.52098 16.5671 2.55595 16.6904 2.61035C16.8544 2.68275 17.0018 2.78886 17.123 2.9209C17.3666 3.18466 17.5014 3.53076 17.5 3.88965V21C17.5 21.1921 17.3898 21.3669 17.2168 21.4502C17.0436 21.5335 16.8376 21.5107 16.6875 21.3906L12 17.6406L7.3125 21.3906C7.16242 21.5107 6.95643 21.5335 6.7832 21.4502C6.61017 21.3669 6.5 21.1921 6.5 21V3.88867C6.49883 3.53012 6.63369 3.18441 6.87695 2.9209C6.9983 2.78875 7.1454 2.68276 7.30957 2.61035C7.47463 2.53761 7.65361 2.50006 7.83398 2.5H16.168Z" stroke="black" stroke-linecap="round" stroke-linejoin="round"/>
</g>
<defs>
<clipPath id="clip0_10_465">
<rect width="24" height="24" fill="white"/>
</clipPath>
</defs>
</svg>
