<svg width="24" height="24" viewBox="0 0 24 24" fill="none" xmlns="http://www.w3.org/2000/svg">
<rect width="24" height="24" fill="white"/>
<path d="M21 2.5C21.2761 2.5 21.5 2.72386 21.5 3V10C21.5 10.2761 21.2761 10.5 21 10.5H3C2.72386 10.5 2.5 10.2761 2.5 10V3C2.5 2.72386 2.72386 2.5 3 2.5H21Z" stroke="black" stroke-linejoin="round"/>
<path d="M21 13.5C21.2761 13.5 21.5 13.7239 21.5 14V21C21.5 21.2761 21.2761 21.5 21 21.5H3C2.72386 21.5 2.5 21.2761 2.5 21V14C2.5 13.7239 2.72386 13.5 3 13.5H21Z" stroke="black" stroke-linejoin="round"/>
</svg>
