<svg width="15" height="15" viewBox="0 0 15 15" fill="none" xmlns="http://www.w3.org/2000/svg">
<path d="M10.625 6.875H4.375C3.68464 6.875 3.125 7.43464 3.125 8.125V11.875C3.125 12.5654 3.68464 13.125 4.375 13.125H10.625C11.3154 13.125 11.875 12.5654 11.875 11.875V8.125C11.875 7.43464 11.3154 6.875 10.625 6.875Z" fill="black"/>
<path fill-rule="evenodd" clip-rule="evenodd" d="M5.9375 4.21875C5.89606 4.21875 5.85632 4.23521 5.82701 4.26451C5.79771 4.29382 5.78125 4.33356 5.78125 4.375V7.5H4.84375V4.375C4.84375 3.77125 5.33375 3.28125 5.9375 3.28125H9.0625C9.66625 3.28125 10.1562 3.77125 10.1562 4.375V7.5H9.21875V4.375C9.21875 4.33356 9.20229 4.29382 9.17299 4.26451C9.14368 4.23521 9.10394 4.21875 9.0625 4.21875H5.9375Z" fill="black"/>
</svg>
