<svg width="18" height="18" viewBox="0 0 18 18" fill="none" xmlns="http://www.w3.org/2000/svg">
<path d="M9.00004 11C10.6768 11 12.0357 9.65714 12.0357 8V4C12.0357 2.34286 10.6768 1 9.00004 1C7.32325 1 5.96432 2.34286 5.96432 4V8C5.96432 9.65714 7.32325 11 9.00004 11ZM14.8929 7.96429C14.8929 7.88571 14.8286 7.82143 14.75 7.82143H13.6786C13.6 7.82143 13.5357 7.88571 13.5357 7.96429C13.5357 10.4696 11.5054 12.5 9.00004 12.5C6.49468 12.5 4.46432 10.4696 4.46432 7.96429C4.46432 7.88571 4.40003 7.82143 4.32146 7.82143H3.25003C3.17146 7.82143 3.10718 7.88571 3.10718 7.96429C3.10718 10.9768 5.36789 13.4625 8.28575 13.8143V15.6429H5.69111C5.44646 15.6429 5.25004 15.8982 5.25004 16.2143V16.8571C5.25004 16.9357 5.30004 17 5.36075 17H12.6393C12.7 17 12.75 16.9357 12.75 16.8571V16.2143C12.75 15.8982 12.5536 15.6429 12.309 15.6429H9.64289V13.8232C12.5947 13.5018 14.8929 11.0018 14.8929 7.96429Z" fill="black"/>
</svg>
