<svg width="15" height="15" viewBox="0 0 15 15" fill="none" xmlns="http://www.w3.org/2000/svg">
<path d="M4.45312 7.5C5.6181 7.5 6.5625 6.5556 6.5625 5.39062C6.5625 4.22565 5.6181 3.28125 4.45312 3.28125C3.28815 3.28125 2.34375 4.22565 2.34375 5.39062C2.34375 6.5556 3.28815 7.5 4.45312 7.5Z" fill="currentColor"/>
<path d="M6.85547 8.67188C6.03047 8.25293 5.11992 8.08594 4.45312 8.08594C3.14707 8.08594 0.46875 8.88691 0.46875 10.4883V11.7188H4.86328V11.2479C4.86328 10.6913 5.09766 10.1332 5.50781 9.66797C5.83506 9.29648 6.29326 8.95166 6.85547 8.67188Z" fill="currentColor"/>
<path d="M9.96094 8.4375C8.43545 8.4375 5.39062 9.37969 5.39062 11.25V12.6562H14.5312V11.25C14.5312 9.37969 11.4864 8.4375 9.96094 8.4375Z" fill="currentColor"/>
<path d="M9.96094 7.5C11.3848 7.5 12.5391 6.34573 12.5391 4.92188C12.5391 3.49802 11.3848 2.34375 9.96094 2.34375C8.53708 2.34375 7.38281 3.49802 7.38281 4.92188C7.38281 6.34573 8.53708 7.5 9.96094 7.5Z" fill="currentColor"/>
</svg>
