<svg width="18" height="18" viewBox="0 0 18 18" fill="none" xmlns="http://www.w3.org/2000/svg">
<path d="M2.77778 17.0001C2.28889 17.0001 1.87052 16.8262 1.52267 16.4783C1.17481 16.1305 1.00059 15.7118 1 15.2223V2.7779C1 2.28901 1.17422 1.87064 1.52267 1.52279C1.87111 1.17494 2.28948 1.00071 2.77778 1.00012H15.2222C15.7111 1.00012 16.1298 1.17434 16.4782 1.52279C16.8267 1.87123 17.0006 2.2896 17 2.7779V15.2223C17 15.7112 16.8261 16.1299 16.4782 16.4783C16.1304 16.8268 15.7117 17.0007 15.2222 17.0001H2.77778ZM3.66667 13.4446H14.3333L11 9.00012L8.33333 12.5557L6.33333 9.88901L3.66667 13.4446Z" fill="black"/>
</svg>
