<svg width="18" height="18" viewBox="0 0 18 18" fill="none" xmlns="http://www.w3.org/2000/svg">
<path fill-rule="evenodd" clip-rule="evenodd" d="M9 17C10.0506 17 11.0909 16.7931 12.0615 16.391C13.0321 15.989 13.914 15.3997 14.6569 14.6569C15.3997 13.914 15.989 13.0321 16.391 12.0615C16.7931 11.0909 17 10.0506 17 9C17 7.94943 16.7931 6.90914 16.391 5.93853C15.989 4.96793 15.3997 4.08601 14.6569 3.34315C13.914 2.60028 13.0321 2.011 12.0615 1.60896C11.0909 1.20693 10.0506 1 9 1C6.87827 1 4.84344 1.84285 3.34315 3.34315C1.84285 4.84344 1 6.87827 1 9C1 11.1217 1.84285 13.1566 3.34315 14.6569C4.84344 16.1571 6.87827 17 9 17ZM7.91822 5.43556L12.9351 8.22311C13.0736 8.30012 13.189 8.41275 13.2694 8.54934C13.3497 8.68594 13.3921 8.84153 13.3921 9C13.3921 9.15847 13.3497 9.31406 13.2694 9.45066C13.189 9.58725 13.0736 9.69988 12.9351 9.77689L7.91822 12.5644C7.75578 12.6547 7.57256 12.701 7.38672 12.6987C7.20088 12.6964 7.01887 12.6456 6.85873 12.5513C6.69858 12.4569 6.56585 12.3224 6.4737 12.161C6.38154 11.9996 6.33316 11.817 6.33333 11.6311V6.36889C6.33316 6.18304 6.38154 6.00036 6.4737 5.83897C6.56585 5.67757 6.69858 5.54306 6.85873 5.44875C7.01887 5.35444 7.20088 5.30361 7.38672 5.30129C7.57256 5.29898 7.75578 5.34526 7.91822 5.43556Z" fill="black"/>
</svg>
