<svg width="60" height="60" viewBox="0 0 60 60" fill="none" xmlns="http://www.w3.org/2000/svg">
<circle cx="30" cy="30" r="30" fill="#D9D9D9"/>
<path d="M30.0017 17.5484C31.9063 15.8445 34.3911 14.9345 36.9457 15.0051C39.5002 15.0758 41.9308 16.1218 43.7384 17.9284C45.5439 19.7338 46.5906 22.1613 46.6637 24.7136C46.7368 27.2658 45.8309 29.7494 44.1317 31.6551L29.9984 45.8084L15.8684 31.6551C14.1671 29.7484 13.2604 27.2627 13.3343 24.7084C13.4082 22.1541 14.4571 19.725 16.2657 17.9198C18.0743 16.1146 20.5054 15.0703 23.0598 15.0012C25.6142 14.9322 28.0982 15.8436 30.0017 17.5484ZM41.3784 20.2834C40.1739 19.0811 38.5553 18.3848 36.8541 18.3374C35.1528 18.29 33.4979 18.895 32.2284 20.0284L30.0034 22.0251L27.7767 20.0301C26.5128 18.8999 24.8658 18.2938 23.1708 18.335C21.4758 18.3762 19.8602 19.0617 18.6527 20.2519C17.4453 21.4422 16.7367 23.0478 16.6712 24.742C16.6056 26.4363 17.1881 28.0918 18.3 29.3718L30 41.0901L41.7 29.3734C42.8073 28.0991 43.3899 26.4522 43.3302 24.7651C43.2705 23.0779 42.5729 21.4763 41.3784 20.2834Z" fill="black"/>
</svg>
