<svg width="60" height="60" viewBox="0 0 60 60" fill="none" xmlns="http://www.w3.org/2000/svg">
<circle cx="30" cy="30" r="30" fill="#D9D9D9"/>
<path d="M30 37.5V45M34.5 26.01V22.5C34.5 22.1022 34.658 21.7206 34.9393 21.4393C35.2206 21.158 35.6022 21 36 21C36.7956 21 37.5587 20.6839 38.1213 20.1213C38.6839 19.5587 39 18.7956 39 18C39 17.2044 38.6839 16.4413 38.1213 15.8787C37.5587 15.3161 36.7956 15 36 15H23.835M15 15L45 45M25.5 25.5V28.14C25.4997 28.6981 25.3437 29.2451 25.0496 29.7194C24.7554 30.1938 24.3348 30.5766 23.835 30.825L21.165 32.175C20.6652 32.4234 20.2446 32.8062 19.9504 33.2806C19.6563 33.7549 19.5003 34.3019 19.5 34.86V36C19.5 36.3978 19.658 36.7794 19.9393 37.0607C20.2206 37.342 20.6022 37.5 21 37.5H37.5" stroke="black" stroke-width="2.66667" stroke-linecap="round" stroke-linejoin="round"/>
</svg>
