<svg width="60" height="60" viewBox="0 0 60 60" fill="none" xmlns="http://www.w3.org/2000/svg">
<circle cx="30" cy="30" r="30" fill="#D9D9D9"/>
<path d="M18.75 18.75L20.3125 43.75C20.3867 45.1945 21.4375 46.25 22.8125 46.25H37.1875C38.568 46.25 39.5992 45.1945 39.6875 43.75L41.25 18.75" stroke="black" stroke-width="2.5" stroke-linecap="round" stroke-linejoin="round"/>
<path d="M16.25 18.75H43.75H16.25Z" fill="black"/>
<path d="M16.25 18.75H43.75" stroke="black" stroke-width="2.5" stroke-miterlimit="10" stroke-linecap="round"/>
<path d="M25 18.75V15.625C24.9993 15.3786 25.0473 15.1344 25.1413 14.9066C25.2352 14.6788 25.3733 14.4718 25.5476 14.2976C25.7218 14.1233 25.9288 13.9852 26.1566 13.8913C26.3844 13.7973 26.6286 13.7493 26.875 13.75H33.125C33.3714 13.7493 33.6156 13.7973 33.8434 13.8913C34.0712 13.9852 34.2782 14.1233 34.4524 14.2976C34.6267 14.4718 34.7648 14.6788 34.8587 14.9066C34.9527 15.1344 35.0007 15.3786 35 15.625V18.75M30 23.75V41.25M24.375 23.75L25 41.25M35.625 23.75L35 41.25" stroke="black" stroke-width="2.5" stroke-linecap="round" stroke-linejoin="round"/>
</svg>
