<svg width="36" height="36" viewBox="0 0 36 36" fill="none" xmlns="http://www.w3.org/2000/svg">
<circle cx="18" cy="18" r="18" fill="#E5E1E0"/>
<path d="M11 27H25C26.1046 27 27 26.1046 27 25V11C27 9.89543 26.1046 9 25 9H11C9.89543 9 9 9.89543 9 11V25C9 26.1046 9.89543 27 11 27ZM11 27L22 16L27 21M16 14.5C16 15.3284 15.3284 16 14.5 16C13.6716 16 13 15.3284 13 14.5C13 13.6716 13.6716 13 14.5 13C15.3284 13 16 13.6716 16 14.5Z" stroke="black" stroke-width="1.5" stroke-linecap="round" stroke-linejoin="round"/>
</svg>
