<svg width="60" height="60" viewBox="0 0 60 60" fill="none" xmlns="http://www.w3.org/2000/svg">
<circle cx="30" cy="30" r="30" fill="#D9D9D9"/>
<path d="M30 37.5V45M25.2857 28.14C25.2854 28.6981 25.122 29.2451 24.8138 29.7194C24.5057 30.1938 24.065 30.5766 23.5414 30.825L20.7443 32.175C20.2207 32.4234 19.78 32.8062 19.4719 33.2806C19.1637 33.7549 19.0003 34.3019 19 34.86V36C19 36.3978 19.1656 36.7794 19.4603 37.0607C19.755 37.342 20.1547 37.5 20.5714 37.5H39.4286C39.8453 37.5 40.245 37.342 40.5397 37.0607C40.8344 36.7794 41 36.3978 41 36V34.86C40.9997 34.3019 40.8363 33.7549 40.5281 33.2806C40.22 32.8062 39.7793 32.4234 39.2557 32.175L36.4586 30.825C35.935 30.5766 35.4943 30.1938 35.1862 29.7194C34.878 29.2451 34.7146 28.6981 34.7143 28.14V22.5C34.7143 22.1022 34.8798 21.7206 35.1745 21.4393C35.4692 21.158 35.8689 21 36.2857 21C37.1193 21 37.9186 20.6839 38.508 20.1213C39.0974 19.5587 39.4286 18.7956 39.4286 18C39.4286 17.2044 39.0974 16.4413 38.508 15.8787C37.9186 15.3161 37.1193 15 36.2857 15H23.7143C22.8807 15 22.0813 15.3161 21.4919 15.8787C20.9025 16.4413 20.5714 17.2044 20.5714 18C20.5714 18.7956 20.9025 19.5587 21.4919 20.1213C22.0813 20.6839 22.8807 21 23.7143 21C24.1311 21 24.5308 21.158 24.8255 21.4393C25.1202 21.7206 25.2857 22.1022 25.2857 22.5V28.14Z" stroke="black" stroke-width="2.5" stroke-linecap="round" stroke-linejoin="round"/>
</svg>
