<svg width="30" height="30" viewBox="0 0 30 30" fill="none" xmlns="http://www.w3.org/2000/svg">
<circle cx="15" cy="15" r="15" fill="#E5E1E0"/>
<mask id="path-2-outside-1_241_4727" maskUnits="userSpaceOnUse" x="5" y="5" width="20" height="20" fill="black">
<rect fill="white" x="5" y="5" width="20" height="20"/>
<path d="M19.4998 6L19.4141 6.00787C19.2599 6.03509 19.1185 6.13478 19.016 6.28845C18.9135 6.44211 18.857 6.63932 18.857 6.84349V21.1175L16.097 17.4984L16.025 17.4174C15.8945 17.2902 15.7322 17.2325 15.5706 17.256C15.409 17.2796 15.2603 17.3825 15.1542 17.5442C15.0482 17.7058 14.9928 17.9142 14.9991 18.1273C15.0054 18.3404 15.0731 18.5425 15.1884 18.6928L19.049 23.7537L19.121 23.8347C19.2448 23.9547 19.3974 24.0124 19.5509 23.9973C19.7044 23.9823 19.8487 23.8954 19.9576 23.7526L23.8121 18.6917L23.8739 18.5972C23.9656 18.4346 24.0097 18.2342 23.9982 18.0325C23.9867 17.8309 23.9204 17.6413 23.8113 17.4984L23.7393 17.4174C23.6154 17.2971 23.4627 17.2392 23.3089 17.2543C23.1552 17.2693 23.0108 17.3564 22.9019 17.4995L20.1427 21.122V6.84349L20.1376 6.72877C20.1164 6.52684 20.0403 6.34177 19.9232 6.2078C19.8061 6.07383 19.6552 6.00001 19.4998 6ZM10.0412 6.24742L6.18834 11.3027L6.12577 11.3972C6.0343 11.5597 5.99031 11.7598 6.00179 11.9613C6.01327 12.1627 6.07947 12.352 6.18834 12.4948L6.26034 12.5769C6.38418 12.697 6.53672 12.7547 6.69024 12.7396C6.84377 12.7246 6.98807 12.6377 7.09692 12.4948L9.85436 8.87573V23.1565L9.86122 23.2712C9.88235 23.4732 9.95849 23.6582 10.0756 23.7922C10.1926 23.9262 10.3427 24 10.4981 24L10.5847 23.9921C10.7387 23.9647 10.88 23.8649 10.9822 23.7112C11.0845 23.5576 11.1409 23.3605 11.1409 23.1565L11.1401 8.87798L13.9027 12.496L13.9747 12.5769C14.1052 12.7026 14.2671 12.759 14.4279 12.7348C14.5888 12.7107 14.7368 12.6078 14.8423 12.4467C14.9479 12.2856 15.0032 12.0782 14.9973 11.8659C14.9914 11.6537 14.9246 11.4521 14.8104 11.3016L10.9498 6.24742L10.8769 6.16645C10.7531 6.04643 10.6006 5.98871 10.447 6.00378C10.2935 6.01884 10.1492 6.1057 10.0404 6.24855"/>
</mask>
<path d="M19.4998 6L19.4141 6.00787C19.2599 6.03509 19.1185 6.13478 19.016 6.28845C18.9135 6.44211 18.857 6.63932 18.857 6.84349V21.1175L16.097 17.4984L16.025 17.4174C15.8945 17.2902 15.7322 17.2325 15.5706 17.256C15.409 17.2796 15.2603 17.3825 15.1542 17.5442C15.0482 17.7058 14.9928 17.9142 14.9991 18.1273C15.0054 18.3404 15.0731 18.5425 15.1884 18.6928L19.049 23.7537L19.121 23.8347C19.2448 23.9547 19.3974 24.0124 19.5509 23.9973C19.7044 23.9823 19.8487 23.8954 19.9576 23.7526L23.8121 18.6917L23.8739 18.5972C23.9656 18.4346 24.0097 18.2342 23.9982 18.0325C23.9867 17.8309 23.9204 17.6413 23.8113 17.4984L23.7393 17.4174C23.6154 17.2971 23.4627 17.2392 23.3089 17.2543C23.1552 17.2693 23.0108 17.3564 22.9019 17.4995L20.1427 21.122V6.84349L20.1376 6.72877C20.1164 6.52684 20.0403 6.34177 19.9232 6.2078C19.8061 6.07383 19.6552 6.00001 19.4998 6ZM10.0412 6.24742L6.18834 11.3027L6.12577 11.3972C6.0343 11.5597 5.99031 11.7598 6.00179 11.9613C6.01327 12.1627 6.07947 12.352 6.18834 12.4948L6.26034 12.5769C6.38418 12.697 6.53672 12.7547 6.69024 12.7396C6.84377 12.7246 6.98807 12.6377 7.09692 12.4948L9.85436 8.87573V23.1565L9.86122 23.2712C9.88235 23.4732 9.95849 23.6582 10.0756 23.7922C10.1926 23.9262 10.3427 24 10.4981 24L10.5847 23.9921C10.7387 23.9647 10.88 23.8649 10.9822 23.7112C11.0845 23.5576 11.1409 23.3605 11.1409 23.1565L11.1401 8.87798L13.9027 12.496L13.9747 12.5769C14.1052 12.7026 14.2671 12.759 14.4279 12.7348C14.5888 12.7107 14.7368 12.6078 14.8423 12.4467C14.9479 12.2856 15.0032 12.0782 14.9973 11.8659C14.9914 11.6537 14.9246 11.4521 14.8104 11.3016L10.9498 6.24742L10.8769 6.16645C10.7531 6.04643 10.6006 5.98871 10.447 6.00378C10.2935 6.01884 10.1492 6.1057 10.0404 6.24855" fill="black"/>
<path d="M19.4998 6L19.4998 5.89958L19.4907 5.90042L19.4998 6ZM19.4141 6.00787L19.4049 5.90795L19.3967 5.90939L19.4141 6.00787ZM18.857 6.84349L18.757 6.84346V6.84349H18.857ZM18.857 21.1175L18.7775 21.1782L18.957 21.4136V21.1175H18.857ZM16.097 17.4984L16.1767 17.4376L16.1717 17.432L16.097 17.4984ZM16.025 17.4174L16.0999 17.3508L16.0948 17.3458L16.025 17.4174ZM15.1884 18.6928L15.2679 18.6321L15.2677 18.6319L15.1884 18.6928ZM19.049 23.7537L18.9692 23.8145L18.9743 23.8202L19.049 23.7537ZM19.121 23.8347L19.046 23.9013L19.0514 23.9065L19.121 23.8347ZM19.9576 23.7526L20.0371 23.8132L20.0371 23.8132L19.9576 23.7526ZM23.8121 18.6917L23.8919 18.7524L23.8959 18.7464L23.8121 18.6917ZM23.8739 18.5972L23.9578 18.652L23.961 18.6463L23.8739 18.5972ZM23.8113 17.4984L23.891 17.4376L23.886 17.432L23.8113 17.4984ZM23.7393 17.4174L23.8142 17.3508L23.809 17.3457L23.7393 17.4174ZM22.9019 17.4995L22.9814 17.5601L22.9814 17.5601L22.9019 17.4995ZM20.1427 21.122H20.0427V21.4184L20.2223 21.1826L20.1427 21.122ZM20.1427 6.84349H20.2428L20.2426 6.83901L20.1427 6.84349ZM20.1376 6.72877L20.2376 6.72428L20.237 6.71837L20.1376 6.72877ZM6.18834 11.3027L6.10863 11.242L6.10497 11.2475L6.18834 11.3027ZM6.12577 11.3972L6.04218 11.3418L6.03863 11.3481L6.12577 11.3972ZM6.18834 12.4948L6.10863 12.5556L6.11316 12.5608L6.18834 12.4948ZM6.26034 12.5769L6.18491 12.6431L6.19075 12.6488L6.26034 12.5769ZM7.09692 12.4948L7.17646 12.5555L7.17646 12.5554L7.09692 12.4948ZM9.85436 8.87573H9.95436V8.57947L9.77482 8.81512L9.85436 8.87573ZM9.85436 23.1565H9.75418L9.75454 23.1625L9.85436 23.1565ZM9.86122 23.2712L9.7613 23.2772L9.76176 23.2816L9.86122 23.2712ZM10.4981 24L10.4981 24.1004L10.5071 24.0996L10.4981 24ZM10.5847 23.9921L10.5937 24.0921L10.6022 24.0906L10.5847 23.9921ZM11.1409 23.1565L11.2409 23.1565V23.1565L11.1409 23.1565ZM11.1401 8.87798L11.2196 8.81729L11.0401 8.58221L11.0401 8.87798L11.1401 8.87798ZM13.9027 12.496L13.823 12.5568L13.8279 12.5624L13.9027 12.496ZM13.9747 12.5769L13.8997 12.6436L13.9053 12.649L13.9747 12.5769ZM14.8104 11.3016L14.89 11.2411L14.8899 11.2409L14.8104 11.3016ZM10.9498 6.24742L11.0295 6.18652L11.0241 6.18054L10.9498 6.24742ZM10.8769 6.16645L10.9515 6.0994L10.9465 6.09464L10.8769 6.16645ZM19.4998 6L19.4907 5.90042L19.405 5.90829L19.4141 6.00787L19.4233 6.10745L19.509 6.09958L19.4998 6ZM19.4141 6.00787L19.3967 5.90939C19.2108 5.94221 19.0475 6.06101 18.9328 6.23297L19.016 6.28845L19.0992 6.34392C19.1895 6.20856 19.309 6.12798 19.4315 6.10635L19.4141 6.00787ZM19.016 6.28845L18.9328 6.23297C18.8183 6.40477 18.757 6.62172 18.757 6.84346L18.857 6.84349L18.957 6.84352C18.957 6.65692 19.0088 6.47946 19.0992 6.34392L19.016 6.28845ZM18.857 6.84349H18.757V21.1175H18.857H18.957V6.84349H18.857ZM18.857 21.1175L18.9365 21.0569L16.1765 17.4378L16.097 17.4984L16.0174 17.559L18.7775 21.1782L18.857 21.1175ZM16.097 17.4984L16.1717 17.432L16.0997 17.351L16.025 17.4174L15.9502 17.4839L16.0222 17.5649L16.097 17.4984ZM16.025 17.4174L16.0948 17.3458C15.945 17.1998 15.7524 17.1285 15.5562 17.1571L15.5706 17.256L15.585 17.355C15.7119 17.3365 15.844 17.3806 15.9551 17.489L16.025 17.4174ZM15.5706 17.256L15.5562 17.1571C15.3611 17.1855 15.1892 17.3086 15.0706 17.4893L15.1542 17.5442L15.2378 17.599C15.3313 17.4565 15.457 17.3736 15.585 17.355L15.5706 17.256ZM15.1542 17.5442L15.0706 17.4893C14.9522 17.6699 14.8923 17.8989 14.8991 18.1303L14.9991 18.1273L15.099 18.1243C15.0933 17.9295 15.1442 17.7418 15.2378 17.599L15.1542 17.5442ZM14.9991 18.1273L14.8991 18.1303C14.906 18.3616 14.9794 18.5846 15.109 18.7537L15.1884 18.6928L15.2677 18.6319C15.1668 18.5003 15.1048 18.3192 15.099 18.1243L14.9991 18.1273ZM15.1884 18.6928L15.1089 18.7534L18.9695 23.8144L19.049 23.7537L19.1285 23.6931L15.2679 18.6321L15.1884 18.6928ZM19.049 23.7537L18.9743 23.8202L19.0463 23.9011L19.121 23.8347L19.1957 23.7682L19.1237 23.6873L19.049 23.7537ZM19.121 23.8347L19.0514 23.9065C19.1935 24.0442 19.3742 24.1152 19.5606 24.0969L19.5509 23.9973L19.5411 23.8978C19.4205 23.9097 19.2961 23.8651 19.1906 23.7629L19.121 23.8347ZM19.5509 23.9973L19.5606 24.0969C19.7464 24.0786 19.9144 23.9742 20.0371 23.8132L19.9576 23.7526L19.878 23.692C19.783 23.8167 19.6624 23.8859 19.5411 23.8978L19.5509 23.9973ZM19.9576 23.7526L20.0371 23.8132L23.8917 18.7522L23.8121 18.6917L23.7326 18.6311L19.878 23.692L19.9576 23.7526ZM23.8121 18.6917L23.8959 18.7464L23.9576 18.6519L23.8739 18.5972L23.7901 18.5425L23.7284 18.637L23.8121 18.6917ZM23.8739 18.5972L23.961 18.6463C24.0628 18.4657 24.1105 18.246 24.098 18.0269L23.9982 18.0325L23.8984 18.0382C23.9089 18.2224 23.8683 18.4035 23.7868 18.5481L23.8739 18.5972ZM23.9982 18.0325L24.098 18.0269C24.0856 17.8078 24.0135 17.5984 23.8908 17.4377L23.8113 17.4984L23.7318 17.5591C23.8273 17.6842 23.8879 17.8539 23.8984 18.0382L23.9982 18.0325ZM23.8113 17.4984L23.886 17.432L23.814 17.351L23.7393 17.4174L23.6646 17.4839L23.7366 17.5649L23.8113 17.4984ZM23.7393 17.4174L23.809 17.3457C23.6668 17.2076 23.4859 17.1365 23.2992 17.1548L23.3089 17.2543L23.3187 17.3538C23.4395 17.342 23.564 17.3866 23.6696 17.4892L23.7393 17.4174ZM23.3089 17.2543L23.2992 17.1548C23.1132 17.173 22.945 17.2777 22.8223 17.439L22.9019 17.4995L22.9814 17.5601C23.0765 17.4351 23.1973 17.3657 23.3187 17.3538L23.3089 17.2543ZM22.9019 17.4995L22.8223 17.4389L20.0631 21.0614L20.1427 21.122L20.2223 21.1826L22.9814 17.5601L22.9019 17.4995ZM20.1427 21.122H20.2427V6.84349H20.1427H20.0427V21.122H20.1427ZM20.1427 6.84349L20.2426 6.83901L20.2375 6.72429L20.1376 6.72877L20.0377 6.73325L20.0428 6.84797L20.1427 6.84349ZM20.1376 6.72877L20.237 6.71837C20.2141 6.49892 20.131 6.29363 19.9985 6.142L19.9232 6.2078L19.8479 6.2736C19.9496 6.38991 20.0188 6.55476 20.0381 6.73918L20.1376 6.72877ZM19.9232 6.2078L19.9985 6.142C19.8654 5.98966 19.6882 5.90001 19.4998 5.9L19.4998 6L19.4998 6.1C19.6221 6.10001 19.7469 6.15799 19.8479 6.2736L19.9232 6.2078ZM10.0412 6.24742L9.96169 6.18681L6.10881 11.2421L6.18834 11.3027L6.26788 11.3633L10.1208 6.30804L10.0412 6.24742ZM6.18834 11.3027L6.10497 11.2475L6.0424 11.342L6.12577 11.3972L6.20914 11.4524L6.27171 11.3579L6.18834 11.3027ZM6.12577 11.3972L6.03863 11.3481C5.93701 11.5286 5.88948 11.7481 5.90195 11.9669L6.00179 11.9613L6.10163 11.9556C6.09114 11.7716 6.13159 11.5907 6.21291 11.4462L6.12577 11.3972ZM6.00179 11.9613L5.90195 11.9669C5.91443 12.1858 5.98638 12.3949 6.10882 12.5555L6.18834 12.4948L6.26787 12.4342C6.17256 12.3092 6.11212 12.1396 6.10163 11.9556L6.00179 11.9613ZM6.18834 12.4948L6.11316 12.5608L6.18516 12.6429L6.26034 12.5769L6.33553 12.511L6.26353 12.4289L6.18834 12.4948ZM6.26034 12.5769L6.19075 12.6488C6.33288 12.7865 6.51358 12.8574 6.70001 12.8391L6.69024 12.7396L6.68048 12.6401C6.55986 12.6519 6.43547 12.6074 6.32994 12.5051L6.26034 12.5769ZM6.69024 12.7396L6.70001 12.8391C6.88579 12.8209 7.05379 12.7164 7.17646 12.5555L7.09692 12.4948L7.01738 12.4342C6.92235 12.559 6.80174 12.6282 6.68048 12.6401L6.69024 12.7396ZM7.09692 12.4948L7.17646 12.5554L9.93391 8.93633L9.85436 8.87573L9.77482 8.81512L7.01738 12.4342L7.09692 12.4948ZM9.85436 8.87573H9.75436V23.1565H9.85436H9.95436V8.87573H9.85436ZM9.85436 23.1565L9.75454 23.1625L9.7614 23.2772L9.86122 23.2712L9.96104 23.2653L9.95418 23.1505L9.85436 23.1565ZM9.86122 23.2712L9.76176 23.2816C9.78472 23.5011 9.86776 23.7064 10.0003 23.858L10.0756 23.7922L10.1509 23.7264C10.0492 23.6101 9.97997 23.4452 9.96068 23.2608L9.86122 23.2712ZM10.0756 23.7922L10.0003 23.858C10.1333 24.0102 10.3095 24.1 10.4981 24.1L10.4981 24L10.4981 23.9C10.3759 23.9 10.252 23.8421 10.1509 23.7264L10.0756 23.7922ZM10.4981 24L10.5071 24.0996L10.5937 24.0917L10.5847 23.9921L10.5756 23.8925L10.489 23.9004L10.4981 24ZM10.5847 23.9921L10.6022 24.0906C10.7879 24.0575 10.951 23.9386 11.0655 23.7666L10.9822 23.7112L10.899 23.6558C10.8089 23.7912 10.6895 23.8719 10.5671 23.8937L10.5847 23.9921ZM10.9822 23.7112L11.0655 23.7666C11.1798 23.5949 11.2409 23.3781 11.2409 23.1565L11.1409 23.1565L11.0409 23.1565C11.0409 23.3429 10.9892 23.5203 10.899 23.6558L10.9822 23.7112ZM11.1409 23.1565L11.2409 23.1565L11.2401 8.87797L11.1401 8.87798L11.0401 8.87798L11.0409 23.1565L11.1409 23.1565ZM11.1401 8.87798L11.0606 8.93866L13.8232 12.5567L13.9027 12.496L13.9821 12.4353L11.2196 8.81729L11.1401 8.87798ZM13.9027 12.496L13.8279 12.5624L13.8999 12.6434L13.9747 12.5769L14.0494 12.5105L13.9774 12.4295L13.9027 12.496ZM13.9747 12.5769L13.9053 12.649C14.0553 12.7934 14.2474 12.863 14.4428 12.8337L14.4279 12.7348L14.4131 12.6359C14.2868 12.6549 14.1551 12.6118 14.044 12.5049L13.9747 12.5769ZM14.4279 12.7348L14.4428 12.8337C14.637 12.8046 14.808 12.6816 14.926 12.5015L14.8423 12.4467L14.7587 12.3919C14.6656 12.534 14.5406 12.6168 14.4131 12.6359L14.4279 12.7348ZM14.8423 12.4467L14.926 12.5015C15.0439 12.3216 15.1037 12.0937 15.0973 11.8631L14.9973 11.8659L14.8974 11.8687C14.9028 12.0628 14.8519 12.2497 14.7587 12.3919L14.8423 12.4467ZM14.9973 11.8659L15.0973 11.8631C15.0908 11.6327 15.0185 11.4103 14.89 11.2411L14.8104 11.3016L14.7307 11.3621C14.8308 11.4939 14.8919 11.6746 14.8974 11.8687L14.9973 11.8659ZM14.8104 11.3016L14.8899 11.2409L11.0293 6.18672L10.9498 6.24742L10.8703 6.30812L14.7309 11.3623L14.8104 11.3016ZM10.9498 6.24742L11.0241 6.18054L10.9513 6.09956L10.8769 6.16645L10.8026 6.23333L10.8755 6.31431L10.9498 6.24742ZM10.8769 6.16645L10.9465 6.09464C10.8044 5.95688 10.6237 5.88596 10.4373 5.90425L10.447 6.00378L10.4568 6.1033C10.5774 6.09146 10.7018 6.13598 10.8073 6.23826L10.8769 6.16645ZM10.447 6.00378L10.4373 5.90425C10.2515 5.92249 10.0835 6.02696 9.96082 6.18794L10.0404 6.24855L10.1199 6.30916C10.2149 6.18444 10.3355 6.1152 10.4568 6.1033L10.447 6.00378Z" fill="black" mask="url(#path-2-outside-1_241_4727)"/>
</svg>
