<svg width="30" height="30" viewBox="0 0 30 30" fill="none" xmlns="http://www.w3.org/2000/svg">
<circle cx="15" cy="15" r="15" fill="#D9D9D9"/>
<path d="M15.3225 22.4167V12.1208M15.3225 12.1208C15.8043 12.1208 16.2664 11.9286 16.6071 11.5879C16.9478 11.2472 17.1392 10.7851 17.1392 10.3033C17.1392 9.82152 16.9478 9.35945 16.6071 9.01876C16.2664 8.67807 15.8043 8.48667 15.3225 8.48667M15.3225 12.1208C14.8407 12.1208 14.3786 11.9286 14.0379 11.5879C13.6972 11.2472 13.5058 10.7851 13.5058 10.3033C13.5058 9.82152 13.6972 9.35945 14.0379 9.01876C14.3786 8.67807 14.8407 8.48667 15.3225 8.48667M15.3225 8.48667V7M20.8283 22.4167V17.6267M20.8283 17.6267C21.3103 17.6267 21.7729 17.4348 22.1136 17.094C22.4544 16.7533 22.6458 16.2911 22.6458 15.8092C22.6458 15.3274 22.4536 14.8653 22.1129 14.5246C21.7722 14.1839 21.3101 13.9925 20.8283 13.9925M20.8283 17.6267C20.3464 17.6267 19.8846 17.4348 19.5439 17.094C19.2031 16.7533 19.0117 16.2911 19.0117 15.8092C19.0117 15.3274 19.2031 14.8653 19.5438 14.5246C19.8844 14.1839 20.3465 13.9925 20.8283 13.9925M20.8283 13.9925V7M9.81667 22.4167V19.8292M9.81667 19.8292C10.0552 19.8292 10.2915 19.7813 10.5119 19.69C10.7323 19.5988 10.9326 19.4649 11.1012 19.2962C11.2699 19.1276 11.4038 18.9273 11.495 18.7069C11.5863 18.4865 11.6333 18.2502 11.6333 18.0117C11.6333 17.5299 11.4419 17.0678 11.1012 16.7271C10.7606 16.3864 10.2985 16.195 9.81667 16.195M9.81667 19.8292C9.5781 19.8292 9.34187 19.7813 9.12146 19.69C8.90105 19.5988 8.70078 19.4649 8.53209 19.2962C8.3634 19.1276 8.22958 18.9273 8.13829 18.7069C8.04699 18.4865 8 18.2502 8 18.0117C8 17.5299 8.1914 17.0678 8.53209 16.7271C8.87278 16.3864 9.33486 16.195 9.81667 16.195M9.81667 16.195V7" stroke="black" stroke-width="1.5" stroke-miterlimit="10" stroke-linecap="round"/>
</svg>
