<svg width="60" height="60" viewBox="0 0 60 60" fill="none" xmlns="http://www.w3.org/2000/svg">
<circle cx="30" cy="30" r="30" fill="#D9D9D9"/>
<path d="M14.68 12.3218L45.3217 42.9634L42.9634 45.3201L36.72 39.0751L30 45.8084L15.87 31.6551C14.2271 29.8126 13.3237 27.4274 13.3339 24.9587C13.344 22.4901 14.267 20.1124 15.925 18.2834L12.3234 14.6801L14.68 12.3218ZM18.3 29.3718L30 41.0901L34.3634 36.7184L18.2867 20.6434C17.2392 21.8569 16.6639 23.4071 16.6664 25.0101C16.6688 26.6131 17.2488 28.1616 18.3 29.3718ZM43.7384 17.9284C45.5439 19.7338 46.5906 22.1614 46.6637 24.7136C46.7368 27.2658 45.8309 29.7494 44.1317 31.6551L41.4067 34.3818L39.05 32.0251L41.7 29.3718C42.8067 28.0915 43.3852 26.4383 43.318 24.7474C43.2508 23.0564 42.5431 21.4543 41.3384 20.2659C40.1336 19.0774 38.522 18.3916 36.8303 18.3475C35.1386 18.3034 33.4934 18.9044 32.2284 20.0284L30.0034 22.0251L27.7767 20.0301C27.2087 19.5213 26.5576 19.1137 25.8517 18.8251L22.1017 15.0751C23.5186 14.8999 24.9566 15.0302 26.319 15.4571C27.6813 15.884 28.9365 16.5977 30 17.5501C31.9047 15.8462 34.3894 14.9362 36.944 15.0068C39.4986 15.0775 41.9292 16.1235 43.7367 17.9301" fill="black"/>
</svg>
