<svg width="36" height="36" viewBox="0 0 36 36" fill="none" xmlns="http://www.w3.org/2000/svg">
<path d="M36 18C36 27.9411 27.9411 36 18 36C8.05887 36 0 27.9411 0 18C0 8.05887 8.05887 0 18 0C27.9411 0 36 8.05887 36 18Z" fill="#E5E1E0"/>
<path d="M10.5 20.25C9.90326 20.25 9.33097 20.0129 8.90901 19.591C8.48705 19.169 8.25 18.5967 8.25 18C8.25 17.4033 8.48705 16.831 8.90901 16.409C9.33097 15.9871 9.90326 15.75 10.5 15.75C11.0967 15.75 11.669 15.9871 12.091 16.409C12.5129 16.831 12.75 17.4033 12.75 18C12.75 18.5967 12.5129 19.169 12.091 19.591C11.669 20.0129 11.0967 20.25 10.5 20.25ZM18 20.25C17.4033 20.25 16.831 20.0129 16.409 19.591C15.9871 19.169 15.75 18.5967 15.75 18C15.75 17.4033 15.9871 16.831 16.409 16.409C16.831 15.9871 17.4033 15.75 18 15.75C18.5967 15.75 19.169 15.9871 19.591 16.409C20.0129 16.831 20.25 17.4033 20.25 18C20.25 18.5967 20.0129 19.169 19.591 19.591C19.169 20.0129 18.5967 20.25 18 20.25ZM25.5 20.25C24.9033 20.25 24.331 20.0129 23.909 19.591C23.4871 19.169 23.25 18.5967 23.25 18C23.25 17.4033 23.4871 16.831 23.909 16.409C24.331 15.9871 24.9033 15.75 25.5 15.75C26.0967 15.75 26.669 15.9871 27.091 16.409C27.5129 16.831 27.75 17.4033 27.75 18C27.75 18.5967 27.5129 19.169 27.091 19.591C26.669 20.0129 26.0967 20.25 25.5 20.25Z" fill="black"/>
</svg>
