<svg width="24" height="24" viewBox="0 0 24 24" fill="none" xmlns="http://www.w3.org/2000/svg">
<g clip-path="url(#clip0_14_741)">
<rect width="24" height="24" fill="white"/>
<line x1="3" y1="9.5" x2="21" y2="9.5" stroke="black"/>
<rect x="2.5" y="4.5" width="19" height="17" rx="3.5" stroke="black"/>
<path d="M8 2C8 1.72386 7.77614 1.5 7.5 1.5C7.22386 1.5 7 1.72386 7 2H8ZM7.5 5H8L8 2H7.5H7L7 5H7.5Z" fill="black"/>
<path d="M17 2C17 1.72386 16.7761 1.5 16.5 1.5C16.2239 1.5 16 1.72386 16 2H17ZM16.5 5H17V2H16.5H16V5H16.5Z" fill="black"/>
<rect x="5.5" y="12.5" width="3" height="3" stroke="black" stroke-linejoin="round"/>
<rect x="15.5" y="12.5" width="3" height="3" stroke="black" stroke-linejoin="round"/>
<rect x="10.5" y="12.5" width="3" height="3" stroke="black" stroke-linejoin="round"/>
</g>
<defs>
<clipPath id="clip0_14_741">
<rect width="24" height="24" fill="white"/>
</clipPath>
</defs>
</svg>
