<svg width="24" height="24" viewBox="0 0 24 24" fill="none" xmlns="http://www.w3.org/2000/svg">
<rect width="24" height="24" rx="12" fill="#A688FD"/>
<path fill-rule="evenodd" clip-rule="evenodd" d="M15.2929 6.29289C15.6834 5.90237 16.3166 5.90237 16.7071 6.29289L19.7071 9.29289C20.0976 9.68342 20.0976 10.3166 19.7071 10.7071C19.3166 11.0976 18.6834 11.0976 18.2929 10.7071L15.2929 7.70711C14.9024 7.31658 14.9024 6.68342 15.2929 6.29289Z" fill="#5D2AAD"/>
<path fill-rule="evenodd" clip-rule="evenodd" d="M19.7071 6.29289C20.0976 6.68342 20.0976 7.31658 19.7071 7.70711L16.7071 10.7071C16.3166 11.0976 15.6834 11.0976 15.2929 10.7071C14.9024 10.3166 14.9024 9.68342 15.2929 9.29289L18.2929 6.29289C18.6834 5.90237 19.3166 5.90237 19.7071 6.29289Z" fill="#5D2AAD"/>
<path fill-rule="evenodd" clip-rule="evenodd" d="M4.29289 6.29289C4.68342 5.90237 5.31658 5.90237 5.70711 6.29289L8.70711 9.29289C9.09763 9.68342 9.09763 10.3166 8.70711 10.7071C8.31658 11.0976 7.68342 11.0976 7.29289 10.7071L4.29289 7.70711C3.90237 7.31658 3.90237 6.68342 4.29289 6.29289Z" fill="#5D2AAD"/>
<path fill-rule="evenodd" clip-rule="evenodd" d="M8.70711 6.29289C9.09763 6.68342 9.09763 7.31658 8.70711 7.70711L5.70711 10.7071C5.31658 11.0976 4.68342 11.0976 4.29289 10.7071C3.90237 10.3166 3.90237 9.68342 4.29289 9.29289L7.29289 6.29289C7.68342 5.90237 8.31658 5.90237 8.70711 6.29289Z" fill="#5D2AAD"/>
<path fill-rule="evenodd" clip-rule="evenodd" d="M8.34748 14.2399C9.39534 13.4358 10.6792 13 12 13C13.3208 13 14.6047 13.4358 15.6526 14.2399C16.7005 15.0439 17.4537 16.1713 17.7956 17.4471C17.9385 17.9806 17.622 18.5289 17.0885 18.6718C16.555 18.8148 16.0067 18.4982 15.8637 17.9647C15.6358 17.1142 15.1337 16.3626 14.4351 15.8266C13.7365 15.2906 12.8806 15 12 15C11.1195 15 10.2636 15.2905 9.565 15.8266C8.86642 16.3626 8.36424 17.1142 8.13634 17.9647C7.9934 18.4982 7.44506 18.8148 6.91159 18.6718C6.37813 18.5289 6.06155 17.9806 6.20449 17.4471C6.54634 16.1713 7.29961 15.0439 8.34748 14.2399Z" fill="#5D2AAD"/>
</svg>
