<svg width="24" height="24" viewBox="0 0 24 24" fill="none" xmlns="http://www.w3.org/2000/svg">
<g clip-path="url(#clip0_44_112)">
<rect width="24" height="24" fill="white"/>
<path d="M21.04 2.96044C20.7358 2.65597 20.3746 2.41443 19.9771 2.24963C19.5795 2.08483 19.1534 2 18.723 2C18.2927 2 17.8665 2.08483 17.469 2.24963C17.0714 2.41443 16.7103 2.65597 16.4061 2.96044L4.08535 15.2818C3.71871 15.6484 3.45206 16.1034 3.31207 16.6033L2.023 21.2071C1.99322 21.3138 1.99234 21.4265 2.02047 21.5337C2.04859 21.6408 2.1047 21.7386 2.18304 21.817C2.26139 21.8953 2.35916 21.9514 2.46633 21.9795C2.5735 22.0077 2.68622 22.0068 2.79295 21.977L7.39594 20.688C7.89624 20.549 8.3519 20.2825 8.71835 19.9147L21.04 7.59334C21.3443 7.28923 21.5858 6.92812 21.7505 6.53065C21.9152 6.13318 22 5.70715 22 5.27689C22 4.84664 21.9152 4.42061 21.7505 4.02314C21.5858 3.62567 21.3443 3.26456 21.04 2.96044ZM17.2902 3.8437C17.6703 3.4637 18.1858 3.25026 18.7233 3.25034C19.2608 3.25042 19.7763 3.464 20.1563 3.84411C20.5363 4.22422 20.7497 4.73971 20.7496 5.27719C20.7496 5.81467 20.536 6.3301 20.1558 6.71009L18.8726 7.99247L16.007 5.12608L17.2902 3.8437ZM15.1237 6.01016L17.9902 8.87656L7.83425 19.0314C7.61975 19.2474 7.35264 19.4036 7.0593 19.4847L3.52539 20.4738L4.51449 16.9408C4.59668 16.6479 4.75277 16.3811 4.96779 16.1659L15.1237 6.01016Z" fill="black"/>
<path d="M20.987 3.01249C20.6663 2.6918 20.2856 2.43742 19.8666 2.26386C19.4476 2.0903 18.9985 2.00098 18.545 2.00098C18.0915 2.00098 17.6424 2.0903 17.2234 2.26386C16.8044 2.43742 16.4237 2.6918 16.103 3.01249L4.01898 15.0985C3.63793 15.4793 3.36642 15.9556 3.23298 16.4775L2.01948 21.22C1.99271 21.325 1.99372 21.4353 2.02242 21.5398C2.05112 21.6444 2.10652 21.7396 2.18318 21.8163C2.25984 21.893 2.35512 21.9484 2.45967 21.9771C2.56422 22.0058 2.67443 22.0068 2.77948 21.98L7.52298 20.768C8.04524 20.6347 8.52194 20.3632 8.90298 19.982L20.987 7.89599C21.6345 7.24835 21.9982 6.37005 21.9982 5.45424C21.9982 4.53843 21.6345 3.66013 20.987 3.01249ZM16.987 3.89649C17.4002 3.48322 17.9606 3.25102 18.5451 3.25097C19.1295 3.25092 19.69 3.48303 20.1032 3.89624C20.5165 4.30945 20.7487 4.8699 20.7488 5.45431C20.7488 6.03872 20.5167 6.59922 20.1035 7.01249L19 8.11599L15.884 4.99949L16.987 3.89649ZM15 5.88349L18.116 8.99999L8.01898 19.098C7.79663 19.3206 7.51837 19.4792 7.21348 19.557L3.49198 20.508L4.44398 16.7875C4.52198 16.4825 4.68048 16.2045 4.90248 15.9825L15 5.88349Z" fill="black"/>
</g>
<defs>
<clipPath id="clip0_44_112">
<rect width="24" height="24" fill="white"/>
</clipPath>
</defs>
</svg>
