<svg width="24" height="24" viewBox="0 0 24 24" fill="none" xmlns="http://www.w3.org/2000/svg">
<g clip-path="url(#clip0_44_103)">
<rect width="24" height="24" fill="white"/>
<path d="M7.57204 15.964C7.57204 16.2503 7.51565 16.5338 7.40609 16.7983C7.29654 17.0627 7.13596 17.3031 6.93353 17.5055C6.7311 17.7079 6.49078 17.8685 6.22629 17.9781C5.9618 18.0876 5.67832 18.144 5.39204 18.144C5.10575 18.144 4.82228 18.0876 4.55779 17.9781C4.2933 17.8685 4.05297 17.7079 3.85054 17.5055C3.64811 17.3031 3.48753 17.0627 3.37798 16.7983C3.26842 16.5338 3.21204 16.2503 3.21204 15.964C3.21204 15.3858 3.44171 14.8313 3.85054 14.4225C4.25937 14.0137 4.81386 13.784 5.39204 13.784C5.97021 13.784 6.5247 14.0137 6.93353 14.4225C7.34236 14.8313 7.57204 15.3858 7.57204 15.964Z" fill="black"/>
<path d="M14.179 6.714C14.179 7.29217 13.9494 7.84666 13.5405 8.25549C13.1317 8.66432 12.5772 8.894 11.999 8.894C11.4209 8.894 10.8664 8.66432 10.4575 8.25549C10.0487 7.84666 9.81904 7.29217 9.81904 6.714C9.81904 6.13583 10.0487 5.58134 10.4575 5.17251C10.8664 4.76368 11.4209 4.534 11.999 4.534C12.5772 4.534 13.1317 4.76368 13.5405 5.17251C13.9494 5.58134 14.179 6.13583 14.179 6.714Z" fill="black"/>
<path d="M20.787 13.321C20.787 13.8993 20.5573 14.4539 20.1484 14.8628C19.7395 15.2718 19.1843 15.502 18.606 15.502C18.0277 15.502 17.4736 15.2718 17.0647 14.8628C16.6558 14.4539 16.426 13.8993 16.426 13.321C16.426 12.7428 16.6557 12.1883 17.0645 11.7795C17.4734 11.3707 18.0279 11.141 18.606 11.141C19.1842 11.141 19.7387 11.3707 20.1475 11.7795C20.5564 12.1883 20.787 12.7428 20.787 13.321Z" fill="black"/>
<path d="M11.999 21.25V8.895M11.999 4.534V2.75M11.999 4.534C11.4209 4.534 10.8664 4.76368 10.4575 5.17251C10.0487 5.58134 9.81904 6.13583 9.81904 6.714C9.81904 7.29217 10.0487 7.84666 10.4575 8.25549C10.8664 8.66432 11.4209 8.894 11.999 8.894C12.5772 8.894 13.1317 8.66432 13.5405 8.25549C13.9494 7.84666 14.179 7.29217 14.179 6.714C14.179 6.13583 13.9494 5.58134 13.5405 5.17251C13.1317 4.76368 12.5772 4.534 11.999 4.534ZM18.606 21.25V15.502M18.606 15.502C19.1843 15.502 19.7395 15.2718 20.1484 14.8628C20.5573 14.4539 20.787 13.8993 20.787 13.321C20.787 12.7428 20.5564 12.1883 20.1475 11.7795C19.7387 11.3707 19.1842 11.141 18.606 11.141M18.606 15.502C18.0277 15.502 17.4736 15.2718 17.0647 14.8628C16.6558 14.4539 16.426 13.8993 16.426 13.321C16.426 12.7428 16.6557 12.1883 17.0645 11.7795C17.4734 11.3707 18.0279 11.141 18.606 11.141M18.606 11.141V2.75M5.39204 21.25V18.145M5.39204 13.784V2.75M5.39204 13.784C4.81386 13.784 4.25937 14.0137 3.85054 14.4225C3.44171 14.8313 3.21204 15.3858 3.21204 15.964C3.21204 16.2503 3.26842 16.5338 3.37798 16.7983C3.48753 17.0627 3.64811 17.3031 3.85054 17.5055C4.05297 17.7079 4.2933 17.8685 4.55779 17.9781C4.82228 18.0876 5.10575 18.144 5.39204 18.144C5.67832 18.144 5.9618 18.0876 6.22629 17.9781C6.49078 17.8685 6.7311 17.7079 6.93353 17.5055C7.13596 17.3031 7.29654 17.0627 7.40609 16.7983C7.51565 16.5338 7.57204 16.2503 7.57204 15.964C7.57204 15.3858 7.34236 14.8313 6.93353 14.4225C6.5247 14.0137 5.97021 13.784 5.39204 13.784Z" stroke="black" stroke-miterlimit="10" stroke-linecap="round"/>
</g>
<defs>
<clipPath id="clip0_44_103">
<rect width="24" height="24" fill="white"/>
</clipPath>
</defs>
</svg>
