<svg width="24" height="24" viewBox="0 0 24 24" fill="none" xmlns="http://www.w3.org/2000/svg">
<rect width="24" height="24" rx="12" fill="#9BB167"/>
<path fill-rule="evenodd" clip-rule="evenodd" d="M15.8519 8.22836C16.2159 8.0776 16.606 8 17 8C17.394 8 17.7841 8.0776 18.1481 8.22836C18.512 8.37913 18.8427 8.6001 19.1213 8.87868C19.3999 9.15726 19.6209 9.48797 19.7716 9.85195C19.9224 10.2159 20 10.606 20 11C20 11.5523 19.5523 12 19 12C18.4477 12 18 11.5523 18 11C18 10.8687 17.9741 10.7386 17.9239 10.6173C17.8736 10.496 17.8 10.3858 17.7071 10.2929C17.6142 10.2 17.504 10.1264 17.3827 10.0761C17.2614 10.0259 17.1313 10 17 10C16.8687 10 16.7386 10.0259 16.6173 10.0761C16.496 10.1264 16.3858 10.2 16.2929 10.2929C16.2 10.3858 16.1264 10.496 16.0761 10.6173C16.0259 10.7386 16 10.8687 16 11C16 11.5523 15.5523 12 15 12C14.4477 12 14 11.5523 14 11C14 10.606 14.0776 10.2159 14.2284 9.85195C14.3791 9.48797 14.6001 9.15726 14.8787 8.87868C15.1573 8.6001 15.488 8.37913 15.8519 8.22836Z" fill="#3D4A26"/>
<path fill-rule="evenodd" clip-rule="evenodd" d="M17.0885 14.3283C17.622 14.4712 17.9385 15.0195 17.7956 15.553C17.4537 16.8288 16.7005 17.9562 15.6526 18.7602C14.6047 19.5643 13.3208 20.0001 12 20.0001C10.6792 20.0001 9.39534 19.5643 8.34748 18.7602C7.29961 17.9562 6.54634 16.8288 6.20449 15.553C6.06155 15.0195 6.37813 14.4712 6.9116 14.3283C7.44506 14.1853 7.9934 14.5019 8.13634 15.0354C8.36424 15.8859 8.86642 16.6375 9.565 17.1735C10.2636 17.7095 11.1195 18.0001 12 18.0001C12.8806 18.0001 13.7365 17.7095 14.4351 17.1735C15.1337 16.6375 15.6358 15.8859 15.8637 15.0354C16.0067 14.5019 16.555 14.1853 17.0885 14.3283Z" fill="#3D4A26"/>
<path fill-rule="evenodd" clip-rule="evenodd" d="M5.85195 8.22836C6.21593 8.0776 6.60603 8 7 8C7.39397 8 7.78407 8.0776 8.14805 8.22836C8.51203 8.37913 8.84274 8.6001 9.12132 8.87868C9.3999 9.15726 9.62087 9.48797 9.77164 9.85195C9.9224 10.2159 10 10.606 10 11C10 11.5523 9.55228 12 9 12C8.44772 12 8 11.5523 8 11C8 10.8687 7.97413 10.7386 7.92388 10.6173C7.87362 10.496 7.79997 10.3858 7.70711 10.2929C7.61425 10.2 7.50401 10.1264 7.38268 10.0761C7.26136 10.0259 7.13132 10 7 10C6.86868 10 6.73864 10.0259 6.61732 10.0761C6.49599 10.1264 6.38575 10.2 6.29289 10.2929C6.20003 10.3858 6.12637 10.496 6.07612 10.6173C6.02587 10.7386 6 10.8687 6 11C6 11.5523 5.55228 12 5 12C4.44772 12 4 11.5523 4 11C4 10.606 4.0776 10.2159 4.22836 9.85195C4.37913 9.48797 4.6001 9.15726 4.87868 8.87868C5.15726 8.6001 5.48797 8.37913 5.85195 8.22836Z" fill="#3D4A26"/>
</svg>
