<svg width="24" height="24" viewBox="0 0 24 24" fill="none" xmlns="http://www.w3.org/2000/svg">
  <path d="M3.208 10.3293L10.6245 3.3031C11.3959 2.5723 12.6041 2.5723 13.3755 3.3031L20.792 10.3293C21.2389 10.7526 21.4659 11.3581 21.4075 11.9708L20.6724 19.6896C20.5747 20.7161 19.7125 21.5 18.6814 21.5H17.1579C16.0533 21.5 15.1579 20.6046 15.1579 19.5V15.5C15.1579 14.3954 14.2625 13.5 13.1579 13.5H10.8421C9.7375 13.5 8.8421 14.3954 8.8421 15.5V19.5C8.8421 20.6046 7.9467 21.5 6.8421 21.5H5.3186C4.2875 21.5 3.4253 20.7161 3.3276 19.6896L2.5925 11.9708C2.5342 11.3581 2.7612 10.7526 3.208 10.3293Z" stroke="currentColor" stroke-linejoin="round"/>
</svg>
