<svg width="24" height="24" viewBox="0 0 24 24" fill="none" xmlns="http://www.w3.org/2000/svg">
  <path d="M13.3755 3.3031C12.6041 2.5723 11.3959 2.5723 10.6245 3.3031L3.208 10.3293C2.7612 10.7526 2.5342 11.3581 2.5925 11.9708L3.3276 19.6896C3.4254 20.7161 4.2875 21.5 5.3186 21.5H6.8421C7.9467 21.5 8.8421 20.6046 8.8421 19.5V15.5C8.8421 14.3954 9.7375 13.5 10.8421 13.5H13.1579C14.2625 13.5 15.1579 14.3954 15.1579 15.5V19.5C15.1579 20.6046 16.0533 21.5 17.1579 21.5H18.6814C19.7125 21.5 20.5747 20.7161 20.6724 19.6896L21.4075 11.9708C21.4659 11.3581 21.2389 10.7526 20.792 10.3293L13.3755 3.3031Z" fill="currentColor" stroke="currentColor" stroke-linejoin="round"/>
</svg>
