<svg width="24" height="24" viewBox="0 0 24 24" fill="none" xmlns="http://www.w3.org/2000/svg">
<g clip-path="url(#clip0_126_3189)">
<rect width="24" height="24" fill="white"/>
<path d="M18 6.96538V3.53846C18 3.13044 17.8595 2.73912 17.6095 2.4506C17.3594 2.16209 17.0203 2 16.6667 2H7.33333C6.97971 2 6.64057 2.16209 6.39052 2.4506C6.14048 2.73912 6 3.13044 6 3.53846V7C6.00061 7.23881 6.04916 7.47422 6.14184 7.68776C6.23451 7.90129 6.3688 8.08715 6.53417 8.23077L10.8892 12L6.53333 15.7692C6.36807 15.9129 6.23391 16.0988 6.14138 16.3123C6.04884 16.5259 6.00045 16.7613 6 17V20.4615C6 20.8696 6.14048 21.2609 6.39052 21.5494C6.64057 21.8379 6.97971 22 7.33333 22H16.6667C17.0203 22 17.3594 21.8379 17.6095 21.5494C17.8595 21.2609 18 20.8696 18 20.4615V17.0346C18 16.7966 17.9521 16.5618 17.8602 16.3487C17.7682 16.1357 17.6346 15.9501 17.47 15.8067L13.105 12L17.47 8.19327C17.6344 8.0496 17.7678 7.86401 17.8597 7.65101C17.9517 7.438 17.9997 7.20335 18 6.96538Z" fill="black"/>
</g>
<defs>
<clipPath id="clip0_126_3189">
<rect width="24" height="24" fill="white"/>
</clipPath>
</defs>
</svg>
