<svg width="24" height="24" viewBox="0 0 24 24" fill="none" xmlns="http://www.w3.org/2000/svg">
<g clip-path="url(#clip0_126_3190)">
<rect width="24" height="24" fill="white"/>
<path d="M18 6.764V3.2C18 2.88174 17.8884 2.57652 17.6899 2.35147C17.4913 2.12643 17.222 2 16.9412 2H7.05882C6.77801 2 6.50869 2.12643 6.31012 2.35147C6.11155 2.57652 6 2.88174 6 3.2V6.8C6 6.98629 6.03827 7.17003 6.11178 7.33666C6.18529 7.50328 6.29203 7.64822 6.42353 7.76L10.5151 11.2381C10.9849 11.6374 10.9849 12.3626 10.5151 12.7619L6.42353 16.24C6.29203 16.3518 6.18529 16.4967 6.11178 16.6633C6.03827 16.83 6 17.0137 6 17.2V20.8C6 21.1183 6.11155 21.4235 6.31012 21.6485C6.50869 21.8736 6.77801 22 7.05882 22H16.9412C17.222 22 17.4913 21.8736 17.6899 21.6485C17.8884 21.4235 18 21.1183 18 20.8V17.236C17.9997 17.0506 17.9616 16.8678 17.8887 16.7018C17.8159 16.5359 17.7102 16.3912 17.58 16.279L13.4715 12.7594C13.0056 12.3603 13.0056 11.6397 13.4715 11.2406L17.58 7.721C17.7102 7.60885 17.8159 7.46415 17.8887 7.29816C17.9616 7.13218 17.9997 6.94938 18 6.764ZM17.2941 17.236V20.8C17.2941 20.9061 17.2569 21.0078 17.1907 21.0828C17.1246 21.1579 17.0348 21.2 16.9412 21.2H7.05882C6.96522 21.2 6.87545 21.1579 6.80926 21.0828C6.74307 21.0078 6.70588 20.9061 6.70588 20.8V17.2C6.70588 17.1379 6.71864 17.0767 6.74314 17.0211C6.76765 16.9656 6.80322 16.9173 6.84706 16.88L11.3498 13.0527C11.7244 12.7343 12.2747 12.7354 12.648 13.0552L17.1547 16.916C17.1982 16.9535 17.2335 17.0019 17.2576 17.0574C17.2818 17.1129 17.2943 17.1741 17.2941 17.236ZM17.2941 6.764C17.2941 6.82584 17.2814 6.88684 17.2571 6.94219C17.2327 6.99754 17.1974 7.04574 17.1538 7.083L12.6481 10.9446C12.2748 11.2645 11.7243 11.2656 11.3497 10.9472L6.84706 7.12C6.80322 7.08274 6.76765 7.03443 6.74314 6.97889C6.71864 6.92334 6.70588 6.8621 6.70588 6.8V3.2C6.70588 3.09391 6.74307 2.99217 6.80926 2.91716C6.87545 2.84214 6.96522 2.8 7.05882 2.8H16.9412C17.0348 2.8 17.1246 2.84214 17.1907 2.91716C17.2569 2.99217 17.2941 3.09391 17.2941 3.2V6.764Z" fill="black"/>
</g>
<defs>
<clipPath id="clip0_126_3190">
<rect width="24" height="24" fill="white"/>
</clipPath>
</defs>
</svg>
