<svg width="24" height="24" viewBox="0 0 24 24" fill="none" xmlns="http://www.w3.org/2000/svg">
<g clip-path="url(#clip0_14_553)">
<rect width="24" height="24" fill="white"/>
<path d="M5.55566 2.5H18.4443C19.0748 2.5 19.5178 2.50009 19.8633 2.52832C20.2027 2.55606 20.404 2.60833 20.5596 2.6875C20.8836 2.85261 21.1474 3.11639 21.3125 3.44043C21.3917 3.59597 21.4439 3.79732 21.4717 4.13672C21.4999 4.48219 21.5 4.92519 21.5 5.55566V18.4443C21.5 19.0748 21.4999 19.5178 21.4717 19.8633C21.4439 20.2027 21.3917 20.404 21.3125 20.5596C21.1474 20.8836 20.8836 21.1474 20.5596 21.3125C20.404 21.3917 20.2027 21.4439 19.8633 21.4717C19.5178 21.4999 19.0748 21.5 18.4443 21.5H5.55566C4.92519 21.5 4.48219 21.4999 4.13672 21.4717C3.79732 21.4439 3.59597 21.3917 3.44043 21.3125C3.11639 21.1474 2.85261 20.8836 2.6875 20.5596C2.60833 20.404 2.55606 20.2027 2.52832 19.8633C2.50009 19.5178 2.5 19.0748 2.5 18.4443V5.55566C2.5 4.92519 2.50009 4.48219 2.52832 4.13672C2.55606 3.79732 2.60833 3.59597 2.6875 3.44043C2.85261 3.11639 3.11639 2.85261 3.44043 2.6875C3.59597 2.60833 3.79732 2.55606 4.13672 2.52832C4.48219 2.50009 4.92519 2.5 5.55566 2.5Z" stroke="black" stroke-linecap="round"/>
<path d="M19.7778 22L15.3333 5.88893M22 5.33337L2 7.5556M13.1111 14.32C13.1111 16.3645 11.1789 17.8145 10.2567 18.3912C10.1132 18.4813 9.94721 18.5291 9.77778 18.5291C9.60834 18.5291 9.44235 18.4813 9.29889 18.3912C8.37667 17.8145 6.44444 16.3634 6.44444 14.32C6.44444 12.2612 8.06 10.8889 9.77778 10.8889C11.5556 10.8889 13.1111 12.2612 13.1111 14.32Z" stroke="black"/>
<circle cx="9.80005" cy="14" r="1" fill="black"/>
</g>
<defs>
<clipPath id="clip0_14_553">
<rect width="24" height="24" fill="white"/>
</clipPath>
</defs>
</svg>
