<svg width="24" height="24" viewBox="0 0 24 24" fill="none" xmlns="http://www.w3.org/2000/svg">
<rect width="24" height="24" rx="12" fill="#FACC15"/>
<path fill-rule="evenodd" clip-rule="evenodd" d="M18 7C18.5523 7 19 7.44772 19 8L19 11C19 11.5523 18.5523 12 18 12C17.4477 12 17 11.5523 17 11L17 8C17 7.44772 17.4477 7 18 7Z" fill="#854D0E"/>
<path fill-rule="evenodd" clip-rule="evenodd" d="M6 7C6.55228 7 7 7.44772 7 8L7 11C7 11.5523 6.55228 12 6 12C5.44772 12 5 11.5523 5 11L5 8C5 7.44772 5.44772 7 6 7Z" fill="#854D0E"/>
<path fill-rule="evenodd" clip-rule="evenodd" d="M17.0885 14.3283C17.622 14.4712 17.9385 15.0195 17.7956 15.553C17.4537 16.8288 16.7005 17.9562 15.6526 18.7602C14.6047 19.5643 13.3208 20.0001 12 20.0001C10.6792 20.0001 9.39534 19.5643 8.34748 18.7602C7.29961 17.9562 6.54634 16.8288 6.20449 15.553C6.06155 15.0195 6.37813 14.4712 6.9116 14.3283C7.44506 14.1853 7.9934 14.5019 8.13634 15.0354C8.36424 15.8859 8.86642 16.6375 9.565 17.1735C10.2636 17.7095 11.1195 18.0001 12 18.0001C12.8806 18.0001 13.7365 17.7095 14.4351 17.1735C15.1337 16.6375 15.6358 15.8859 15.8637 15.0354C16.0067 14.5019 16.555 14.1853 17.0885 14.3283Z" fill="#854D0E"/>
</svg>
