<svg width="48" height="47" viewBox="0 0 48 47" fill="none" xmlns="http://www.w3.org/2000/svg">
<circle cx="23.3431" cy="23.1144" r="23.1144" fill="#B7D58C"/>
<path d="M22.9326 27.4125C15.911 27.4125 9.91333 28.5195 9.91333 32.9478C9.91333 37.3776 15.8735 38.5237 22.9326 38.5237C29.9543 38.5237 35.952 37.4183 35.952 32.9885C35.952 28.5586 29.9934 27.4125 22.9326 27.4125Z" fill="#FFFDF2"/>
<path d="M22.9328 23.1951C27.7159 23.1951 31.5483 19.3611 31.5483 14.5796C31.5483 9.79811 27.7159 5.96411 22.9328 5.96411C18.1513 5.96411 14.3173 9.79811 14.3173 14.5796C14.3173 19.3611 18.1513 23.1951 22.9328 23.1951Z" fill="#FFFDF2"/>
<path d="M39.2288 31.5C43.3709 31.5 46.7288 34.8579 46.7288 39C46.7288 43.1421 43.3709 46.5 39.2288 46.5C35.0866 46.5 31.7288 43.1421 31.7288 39C31.7288 34.8579 35.0866 31.5 39.2288 31.5Z" fill="#B7D58D" stroke="#2C2C2C"/>
<path d="M38.8799 39.497V42.4568H39.7256V39.497H42.6855V38.6513H39.7256V35.6914H38.8799V38.6513H35.92V39.497H38.8799Z" fill="white"/>
</svg>
