<svg width="53" height="56" viewBox="0 0 53 56" fill="none" xmlns="http://www.w3.org/2000/svg">
<circle cx="29.8856" cy="23.1144" r="23.1144" fill="#4F735A"/>
<path d="M29.4746 27.4125C22.453 27.4125 16.4553 28.5195 16.4553 32.9478C16.4553 37.3776 22.4155 38.5237 29.4746 38.5237C36.4963 38.5237 42.4939 37.4183 42.4939 32.9885C42.4939 28.5586 36.5354 27.4125 29.4746 27.4125Z" fill="#FFFDF2"/>
<path d="M29.4748 23.1951C34.2579 23.1951 38.0903 19.3611 38.0903 14.5796C38.0903 9.79811 34.2579 5.96411 29.4748 5.96411C24.6933 5.96411 20.8593 9.79811 20.8593 14.5796C20.8593 19.3611 24.6933 23.1951 29.4748 23.1951Z" fill="#FFFDF2"/>
<circle cx="23.1144" cy="32.8856" r="23.1144" fill="#B7D58C"/>
<path d="M22.7039 37.1837C15.6822 37.1837 9.68457 38.2908 9.68457 42.719C9.68457 47.1489 15.6448 48.295 22.7039 48.295C29.7256 48.295 35.7232 47.1896 35.7232 42.7597C35.7232 38.3298 29.7646 37.1837 22.7039 37.1837Z" fill="#FFFDF2"/>
<path d="M22.704 32.9664C27.4871 32.9664 31.3195 29.1324 31.3195 24.3509C31.3195 19.5693 27.4871 15.7354 22.704 15.7354C17.9225 15.7354 14.0885 19.5693 14.0885 24.3509C14.0885 29.1324 17.9225 32.9664 22.704 32.9664Z" fill="#FFFDF2"/>
</svg>
