<svg width="54" height="56" viewBox="0 0 54 56" fill="none" xmlns="http://www.w3.org/2000/svg">
<circle cx="30.3431" cy="23.1144" r="23.1144" fill="#4F735A"/>
<path d="M29.9322 27.4125C22.9105 27.4125 16.9128 28.5195 16.9128 32.9478C16.9128 37.3776 22.873 38.5237 29.9322 38.5237C36.9538 38.5237 42.9515 37.4183 42.9515 32.9885C42.9515 28.5586 36.9929 27.4125 29.9322 27.4125Z" fill="#FFFDF2"/>
<path d="M29.9323 23.1951C34.7154 23.1951 38.5478 19.3611 38.5478 14.5796C38.5478 9.79811 34.7154 5.96411 29.9323 5.96411C25.1508 5.96411 21.3168 9.79811 21.3168 14.5796C21.3168 19.3611 25.1508 23.1951 29.9323 23.1951Z" fill="#FFFDF2"/>
<circle cx="23.5719" cy="32.8856" r="23.1144" fill="#B7D58C"/>
<path d="M23.1614 37.1837C16.1397 37.1837 10.1421 38.2908 10.1421 42.719C10.1421 47.1489 16.1023 48.295 23.1614 48.295C30.1831 48.295 36.1807 47.1896 36.1807 42.7597C36.1807 38.3298 30.2221 37.1837 23.1614 37.1837Z" fill="#FFFDF2"/>
<path d="M23.1615 32.9664C27.9447 32.9664 31.777 29.1324 31.777 24.3509C31.777 19.5693 27.9447 15.7354 23.1615 15.7354C18.38 15.7354 14.546 19.5693 14.546 24.3509C14.546 29.1324 18.38 32.9664 23.1615 32.9664Z" fill="#FFFDF2"/>
<path d="M43 34.5C48.799 34.5 53.5 39.201 53.5 45C53.5 50.799 48.799 55.5 43 55.5C37.201 55.5 32.5 50.799 32.5 45C32.5 39.201 37.201 34.5 43 34.5Z" fill="#B7D58D" stroke="#2C2C2C"/>
<path d="M36.9114 46.7979V45.5137H42.4192V46.7979H36.9114ZM39.0207 48.8438V43.4678H40.3049V48.8438H39.0207ZM46.3494 49.1562C45.8188 49.1562 45.3533 49.0684 44.9529 48.8926C44.5558 48.7135 44.2416 48.4661 44.0105 48.1504C43.7794 47.8314 43.6459 47.4619 43.6101 47.042L43.6052 46.9785H45.0164L45.0213 47.0322C45.044 47.2145 45.1108 47.3773 45.2214 47.5205C45.3354 47.6605 45.4884 47.7712 45.6804 47.8525C45.8725 47.9307 46.0955 47.9697 46.3494 47.9697C46.6 47.9697 46.8181 47.9274 47.0037 47.8428C47.1925 47.7549 47.3373 47.6344 47.4382 47.4814C47.5424 47.3285 47.5945 47.1527 47.5945 46.9541V46.9443C47.5945 46.6058 47.474 46.347 47.2332 46.168C46.9955 45.9889 46.6635 45.8994 46.2371 45.8994H45.4314V44.8496H46.2175C46.4649 44.8496 46.6798 44.8089 46.8621 44.7275C47.0444 44.6462 47.186 44.5339 47.2869 44.3906C47.3878 44.2441 47.4382 44.0765 47.4382 43.8877V43.8779C47.4382 43.6826 47.3943 43.515 47.3064 43.375C47.2218 43.2318 47.0964 43.1227 46.9304 43.0479C46.7677 42.9697 46.5707 42.9307 46.3396 42.9307C46.1085 42.9307 45.905 42.9697 45.7293 43.0479C45.5535 43.126 45.4135 43.2383 45.3093 43.3848C45.2052 43.528 45.1433 43.6973 45.1238 43.8926L45.1189 43.9365H43.7615L43.7664 43.8779C43.8022 43.4548 43.9291 43.0885 44.1472 42.7793C44.3686 42.4668 44.6648 42.2259 45.0359 42.0566C45.4102 41.8841 45.8448 41.7979 46.3396 41.7979C46.8442 41.7979 47.2836 41.8776 47.658 42.0371C48.0323 42.1934 48.3204 42.4131 48.5222 42.6963C48.7273 42.9762 48.8298 43.305 48.8298 43.6826V43.6924C48.8298 43.9854 48.7647 44.2425 48.6345 44.4639C48.5043 44.6852 48.3285 44.8675 48.1072 45.0107C47.8858 45.154 47.6368 45.2549 47.3601 45.3135V45.3428C47.8842 45.3916 48.3041 45.5609 48.6199 45.8506C48.9356 46.1403 49.0935 46.5244 49.0935 47.0029V47.0127C49.0935 47.4391 48.978 47.8135 48.7468 48.1357C48.519 48.458 48.2 48.7087 47.7898 48.8877C47.3796 49.0667 46.8995 49.1562 46.3494 49.1562Z" fill="black"/>
</svg>
