<svg width="24" height="24" viewBox="0 0 24 24" fill="none" xmlns="http://www.w3.org/2000/svg">
  <path d="M12 1.5C9.8127 1.5025 7.7157 2.3725 6.1691 3.9191C4.6225 5.4657 3.7525 7.5627 3.75 9.75C3.75 16.8094 11.25 22.1409 11.5697 22.3641C11.6958 22.4524 11.846 22.4998 12 22.4998C12.154 22.4998 12.3042 22.4524 12.4303 22.3641C12.75 22.1409 20.25 16.8094 20.25 9.75C20.2475 7.5627 19.3775 5.4657 17.8309 3.9191C16.2843 2.3725 14.1873 1.5025 12 1.5ZM12 6.75C12.5933 6.75 13.1734 6.926 13.6667 7.2556C14.1601 7.5852 14.5446 8.0538 14.7716 8.602C14.9987 9.1501 15.0581 9.7533 14.9424 10.3353C14.8266 10.9172 14.5409 11.4518 14.1213 11.8713C13.7018 12.2909 13.1672 12.5766 12.5853 12.6924C12.0033 12.8081 11.4001 12.7487 10.8519 12.5216C10.3038 12.2946 9.8352 11.9101 9.5056 11.4167C9.176 10.9234 9 10.3433 9 9.75C9 8.9544 9.3161 8.1913 9.8787 7.6287C10.4413 7.0661 11.2044 6.75 12 6.75Z" fill="currentColor"/>
</svg>
