<svg width="24" height="24" viewBox="0 0 24 24" fill="none" xmlns="http://www.w3.org/2000/svg">
  <path d="M12 6.1875C11.2954 6.1875 10.6066 6.3964 10.0208 6.7879C9.4349 7.1793 8.9783 7.7357 8.7087 8.3867C8.439 9.0377 8.3685 9.754 8.506 10.445C8.6434 11.1361 8.9827 11.7708 9.4809 12.2691C9.9792 12.7673 10.6139 13.1066 11.305 13.244C11.996 13.3815 12.7123 13.311 13.3633 13.0413C14.0143 12.7717 14.5707 12.3151 14.9621 11.7292C15.3536 11.1434 15.5625 10.4546 15.5625 9.75C15.5625 8.8052 15.1872 7.899 14.5191 7.2309C13.851 6.5628 12.9448 6.1875 12 6.1875ZM12 12.1875C11.5179 12.1875 11.0466 12.0445 10.6458 11.7767C10.245 11.5089 9.9325 11.1282 9.748 10.6828C9.5636 10.2374 9.5153 9.7473 9.6093 9.2745C9.7034 8.8016 9.9355 8.3673 10.2764 8.0264C10.6173 7.6855 11.0516 7.4534 11.5245 7.3593C11.9973 7.2653 12.4874 7.3136 12.9328 7.498C13.3782 7.6825 13.7589 7.995 14.0267 8.3958C14.2945 8.7966 14.4375 9.2679 14.4375 9.75C14.4375 10.3965 14.1807 11.0165 13.7236 11.4736C13.2665 11.9307 12.6465 12.1875 12 12.1875ZM12 1.6875C9.8625 1.69 7.8132 2.5402 6.3017 4.0517C4.7902 5.5632 3.94 7.6125 3.9375 9.75C3.9375 12.6478 5.2819 15.7256 7.8253 18.6506C8.9733 19.9773 10.2653 21.1722 11.6775 22.2131C11.772 22.2793 11.8846 22.3148 12 22.3148C12.1154 22.3148 12.228 22.2793 12.3225 22.2131C13.7347 21.1722 15.0267 19.9773 16.1747 18.6506C18.7181 15.7256 20.0625 12.6506 20.0625 9.75C20.06 7.6125 19.2098 5.5632 17.6983 4.0517C16.1868 2.5402 14.1375 1.69 12 1.6875ZM12 21.0478C10.5938 19.9622 5.0625 15.3394 5.0625 9.75C5.0625 7.9101 5.7934 6.1455 7.0945 4.8445C8.3955 3.5434 10.1601 2.8125 12 2.8125C13.8399 2.8125 15.6045 3.5434 16.9056 4.8445C18.2066 6.1455 18.9375 7.9101 18.9375 9.75C18.9375 15.3394 13.4062 19.9622 12 21.0478Z" fill="none" stroke="currentColor"/>
</svg>
