<svg width="40" height="40" viewBox="0 0 40 40" fill="none" xmlns="http://www.w3.org/2000/svg">
<path d="M20 27.5V35M15.2857 18.14C15.2854 18.6981 15.122 19.2451 14.8138 19.7194C14.5057 20.1938 14.065 20.5766 13.5414 20.825L10.7443 22.175C10.2207 22.4234 9.78001 22.8062 9.47187 23.2806C9.16372 23.7549 9.00031 24.3019 9 24.86V26C9 26.3978 9.16556 26.7794 9.46026 27.0607C9.75496 27.342 10.1547 27.5 10.5714 27.5H29.4286C29.8453 27.5 30.245 27.342 30.5397 27.0607C30.8344 26.7794 31 26.3978 31 26V24.86C30.9997 24.3019 30.8363 23.7549 30.5281 23.2806C30.22 22.8062 29.7793 22.4234 29.2557 22.175L26.4586 20.825C25.935 20.5766 25.4943 20.1938 25.1862 19.7194C24.878 19.2451 24.7146 18.6981 24.7143 18.14V12.5C24.7143 12.1022 24.8798 11.7206 25.1745 11.4393C25.4692 11.158 25.8689 11 26.2857 11C27.1193 11 27.9186 10.6839 28.508 10.1213C29.0974 9.55871 29.4286 8.79565 29.4286 8C29.4286 7.20435 29.0974 6.44129 28.508 5.87868C27.9186 5.31607 27.1193 5 26.2857 5H13.7143C12.8807 5 12.0813 5.31607 11.4919 5.87868C10.9025 6.44129 10.5714 7.20435 10.5714 8C10.5714 8.79565 10.9025 9.55871 11.4919 10.1213C12.0813 10.6839 12.8807 11 13.7143 11C14.1311 11 14.5308 11.158 14.8255 11.4393C15.1202 11.7206 15.2857 12.1022 15.2857 12.5V18.14Z" stroke="currentColor" stroke-width="2.5" stroke-linecap="round" stroke-linejoin="round"/>
</svg>
