<svg width="24" height="24" viewBox="0 0 24 24" fill="none" xmlns="http://www.w3.org/2000/svg">
<rect width="24" height="24" rx="12" fill="#EF8834"/>
<path fill-rule="evenodd" clip-rule="evenodd" d="M8.34748 14.2399C9.39534 13.4358 10.6792 13 12 13C13.3208 13 14.6047 13.4358 15.6526 14.2399C16.7005 15.0439 17.4537 16.1713 17.7956 17.4471C17.9385 17.9806 17.622 18.5289 17.0885 18.6718C16.555 18.8148 16.0067 18.4982 15.8637 17.9647C15.6358 17.1142 15.1337 16.3626 14.4351 15.8266C13.7365 15.2906 12.8806 15 12 15C11.1195 15 10.2636 15.2905 9.565 15.8266C8.86642 16.3626 8.36424 17.1142 8.13634 17.9647C7.9934 18.4982 7.44506 18.8148 6.91159 18.6718C6.37813 18.5289 6.06155 17.9806 6.20449 17.4471C6.54634 16.1713 7.29961 15.0439 8.34748 14.2399Z" fill="#9A3412"/>
<path fill-rule="evenodd" clip-rule="evenodd" d="M6 7C6.55228 7 7 7.44772 7 8V11C7 11.5523 6.55228 12 6 12C5.44772 12 5 11.5523 5 11V8C5 7.44772 5.44772 7 6 7Z" fill="#9A3412"/>
<path fill-rule="evenodd" clip-rule="evenodd" d="M18 7C18.5523 7 19 7.44772 19 8V11C19 11.5523 18.5523 12 18 12C17.4477 12 17 11.5523 17 11V8C17 7.44772 17.4477 7 18 7Z" fill="#9A3412"/>
</svg>
