<svg width="24" height="24" viewBox="0 0 24 24" fill="none" xmlns="http://www.w3.org/2000/svg">
<g clip-path="url(#clip0_10_456)">
<rect width="24" height="24" fill="white"/>
<path d="M10.249 2.5H13.7129C13.9415 2.49533 14.1647 2.56998 14.3447 2.71094C14.522 2.84973 14.6405 3.04316 14.6826 3.25293L14.6836 3.25586L14.9443 4.50879C15.0495 5.0146 15.3837 5.41907 15.8037 5.6543C16.2101 5.88179 16.7094 5.95848 17.1836 5.80273L18.4561 5.38477L18.4551 5.38379C18.5875 5.34078 18.7277 5.32705 18.8662 5.34082C19.0044 5.35457 19.1386 5.39592 19.2598 5.46387V5.46484C19.37 5.52721 19.4667 5.6106 19.5449 5.70898L19.6172 5.81152L21.3516 8.67676V8.67773L21.3584 8.6875C21.476 8.87167 21.5224 9.09258 21.4893 9.30859C21.4561 9.52447 21.3459 9.7209 21.1787 9.86133L21.1758 9.86426L20.1875 10.7061C19.8073 11.0299 19.588 11.5045 19.5879 12.0039C19.5879 12.4904 19.7959 12.9538 20.1592 13.2773L21.1455 14.1562L21.1514 14.1621L21.1582 14.167C21.3232 14.3047 21.4332 14.497 21.4688 14.709C21.5043 14.9211 21.4627 15.1392 21.3516 15.3232L21.3486 15.3291L19.6729 18.1904C19.6091 18.2979 19.5252 18.3915 19.4258 18.4658L19.3223 18.5332C19.1704 18.6172 18.9997 18.662 18.8262 18.6631C18.7195 18.6637 18.6136 18.6469 18.5117 18.6152L17.251 18.1992C16.7772 18.0428 16.2779 18.1192 15.8711 18.3447C15.4469 18.58 15.1078 18.9864 15.002 19.4971L14.7432 20.7441C14.6981 20.9599 14.5781 21.1526 14.4043 21.2881L14.4033 21.2891C14.2233 21.43 14 21.5046 13.7715 21.5H10.2783C10.1068 21.5035 9.93854 21.462 9.78906 21.3818L9.64648 21.2891L9.52637 21.1768C9.41729 21.0551 9.34117 20.906 9.30762 20.7441L9.04688 19.4902C8.94185 18.9857 8.60877 18.5815 8.1875 18.3457C7.7797 18.1175 7.28018 18.042 6.80664 18.1982L5.54199 18.6152C5.43934 18.6475 5.3322 18.6628 5.22461 18.6621C5.09477 18.6611 4.96652 18.6368 4.84668 18.5889L4.72949 18.5332C4.58472 18.4522 4.46384 18.334 4.37891 18.1914L4.37695 18.1885L2.64062 15.3223L2.63672 15.3164C2.52077 15.1308 2.47619 14.9093 2.51172 14.6934C2.5474 14.4772 2.66145 14.2811 2.83105 14.1426L2.83691 14.1377L2.84277 14.1318L3.84375 13.2598C4.19495 12.9535 4.40521 12.5164 4.4248 12.0508C4.44671 11.5301 4.22782 11.0285 3.83203 10.6895L2.83789 9.83691L2.83301 9.83301C2.66801 9.69528 2.55803 9.503 2.52246 9.29102C2.48691 9.07894 2.52852 8.86084 2.63965 8.67676L2.63867 8.67578L4.37598 5.81348L4.37793 5.80957C4.46272 5.66665 4.58363 5.54811 4.72852 5.4668C4.88013 5.38292 5.05037 5.33817 5.22363 5.33691H5.2373L5.25195 5.33594C5.3553 5.32945 5.45893 5.33908 5.55957 5.36328L6.75781 5.78516C7.23498 5.9528 7.74259 5.88058 8.15527 5.65234C8.57689 5.41909 8.91238 5.01552 9.01758 4.50977L9.27832 3.25586C9.31187 3.094 9.38801 2.94487 9.49707 2.82324L9.61719 2.71094C9.79724 2.56998 10.0204 2.49532 10.249 2.5Z" stroke="black"/>
<path d="M11.9994 8.65405C12.8867 8.65405 13.7381 9.00702 14.3656 9.63452C14.9927 10.2619 15.345 11.1126 15.3451 11.9998C15.3451 12.8871 14.9929 13.7385 14.3656 14.366C13.7381 14.9935 12.8867 15.3464 11.9994 15.3464C11.1121 15.3464 10.2606 14.9935 9.63318 14.366C9.00591 13.7385 8.65369 12.8871 8.65369 11.9998C8.65377 11.1127 9.00609 10.2619 9.63318 9.63452C10.2606 9.00703 11.1121 8.65406 11.9994 8.65405Z" stroke="black"/>
</g>
<defs>
<clipPath id="clip0_10_456">
<rect width="24" height="24" fill="white"/>
</clipPath>
</defs>
</svg>
