<svg width="24" height="24" viewBox="0 0 24 24" fill="none" xmlns="http://www.w3.org/2000/svg">
<g clip-path="url(#clip0_10_455)">
<rect width="24" height="24" fill="white"/>
<path d="M10.3818 2.5H13.582C13.9475 2.49456 14.3059 2.61379 14.5938 2.83789V2.83887C14.8843 3.06743 15.0834 3.38642 15.1562 3.74219V3.74414L15.3926 4.875C15.4502 5.15141 15.6271 5.38129 15.8633 5.51367C16.0931 5.64247 16.3703 5.67467 16.6289 5.58984L17.7871 5.20996L17.7861 5.20898C17.9977 5.14089 18.2213 5.11838 18.4424 5.14062C18.664 5.16296 18.8791 5.23049 19.0732 5.33984C19.3136 5.47537 19.5133 5.66897 19.6514 5.90234L19.6533 5.90625L21.2607 8.55762L21.2656 8.56543C21.4608 8.87416 21.5377 9.24344 21.4824 9.60449C21.4274 9.96254 21.2456 10.2888 20.9707 10.5244C20.9669 10.5275 20.9627 10.53 20.959 10.5332H20.958L20.042 11.3154C19.8404 11.4874 19.7237 11.739 19.7236 12.0039C19.7236 12.2621 19.8346 12.5079 20.0273 12.6797L20.9385 13.4922L20.9473 13.5C21.2207 13.7321 21.4034 14.0534 21.4619 14.4072C21.5203 14.7612 21.451 15.1249 21.2666 15.4326L21.2637 15.4375L19.708 18.0928C19.7064 18.0956 19.7047 18.0987 19.7031 18.1016C19.5626 18.3333 19.3657 18.5255 19.1299 18.6592C18.8911 18.7945 18.6211 18.8655 18.3467 18.8652H18.3428C18.1748 18.8661 18.008 18.8408 17.8477 18.791L17.8369 18.7881L16.6914 18.4102L16.5918 18.3828C16.3933 18.3405 16.1904 18.3648 16.0107 18.4424L15.9229 18.4854C15.7151 18.6009 15.5506 18.7913 15.4736 19.0254L15.4463 19.1289L15.2119 20.2549V20.2559C15.1473 20.5695 14.9871 20.8541 14.7549 21.0713L14.6514 21.1602C14.3623 21.3864 14.0037 21.5065 13.6367 21.5H10.4082C10.0879 21.5052 9.77436 21.4142 9.50781 21.2402L9.39648 21.1602C9.10843 20.9351 8.90907 20.6148 8.83496 20.2568V20.2559L8.59863 19.123C8.54807 18.8806 8.40642 18.675 8.21387 18.5391L8.12891 18.4854L8.04102 18.4414C7.86148 18.3634 7.65862 18.3398 7.46094 18.3818L7.36328 18.4092L6.20605 18.7881C5.99416 18.8564 5.77035 18.8807 5.54883 18.8584C5.38247 18.8416 5.22011 18.7988 5.06738 18.7324L4.91699 18.6572L4.74609 18.5469C4.58307 18.4256 4.44492 18.2731 4.33984 18.0977L4.33789 18.0947L2.72949 15.4385L2.72754 15.4336L2.66211 15.3174C2.52297 15.0412 2.47118 14.7281 2.51562 14.4199C2.56298 14.0919 2.76806 13.7465 3.05371 13.4912L3.05859 13.4873L3.94043 12.6787C4.13051 12.5046 4.23926 12.2587 4.23926 12.001C4.2392 11.7438 4.13081 11.4982 3.94141 11.3242L3.05859 10.5137L3.05176 10.5068L3.04395 10.5C2.77011 10.2676 2.58752 9.94528 2.5293 9.59082C2.47846 9.28104 2.52493 8.96398 2.66113 8.68359L2.72559 8.56641C2.72663 8.56473 2.72847 8.56321 2.72949 8.56152L4.33789 5.90625L4.33984 5.90234C4.47833 5.66944 4.67501 5.47639 4.91016 5.3418C5.14537 5.20718 5.41162 5.13616 5.68262 5.13477H5.69434L5.70703 5.13379C5.86872 5.12524 6.02781 5.13936 6.18555 5.17773V5.17871L6.2041 5.18262L7.32812 5.5791C7.58908 5.67093 7.86959 5.64019 8.10059 5.5127C8.33628 5.38248 8.51559 5.15448 8.57324 4.87695L8.80762 3.74512L8.80859 3.74414C8.88247 3.38577 9.08088 3.06514 9.36914 2.83984H9.37012C9.65606 2.61563 10.0151 2.49462 10.3818 2.5ZM11.999 7.21484C10.7301 7.21494 9.5135 7.71891 8.61621 8.61621C7.71882 9.51369 7.21387 10.7308 7.21387 12C7.21388 13.2692 7.71883 14.4863 8.61621 15.3838C9.5135 16.2811 10.7301 16.7851 11.999 16.7852C13.2681 16.7852 14.4854 16.2812 15.3828 15.3838C16.2802 14.4863 16.7842 13.2692 16.7842 12C16.7842 10.7308 16.2802 9.51369 15.3828 8.61621C14.4854 7.71876 13.2681 7.21484 11.999 7.21484ZM11.999 9.64258C12.624 9.64258 13.224 9.89101 13.666 10.333C14.108 10.775 14.3564 11.3749 14.3564 12C14.3564 12.6251 14.108 13.225 13.666 13.667C13.224 14.109 12.624 14.3574 11.999 14.3574C11.3742 14.3573 10.7749 14.1088 10.333 13.667C9.89103 13.225 9.64259 12.6251 9.64258 12C9.64258 11.3749 9.89102 10.775 10.333 10.333C10.7749 9.89117 11.3742 9.64268 11.999 9.64258Z" fill="black" stroke="black"/>
</g>
<defs>
<clipPath id="clip0_10_455">
<rect width="24" height="24" fill="white"/>
</clipPath>
</defs>
</svg>
