<svg width="24" height="24" viewBox="0 0 24 24" fill="none" xmlns="http://www.w3.org/2000/svg">
  <circle cx="12" cy="12" r="3.25" stroke="currentColor" stroke-width="1.8"/>
  <path d="M10 3.5H14L14.45 6.05C14.98 6.25 15.48 6.54 15.92 6.9L18.35 6.02L20.35 9.48L18.36 11.15C18.4 11.43 18.42 11.71 18.42 12C18.42 12.29 18.4 12.57 18.36 12.85L20.35 14.52L18.35 17.98L15.92 17.1C15.48 17.46 14.98 17.75 14.45 17.95L14 20.5H10L9.55 17.95C9.02 17.75 8.52 17.46 8.08 17.1L5.65 17.98L3.65 14.52L5.64 12.85C5.6 12.57 5.58 12.29 5.58 12C5.58 11.71 5.6 11.43 5.64 11.15L3.65 9.48L5.65 6.02L8.08 6.9C8.52 6.54 9.02 6.25 9.55 6.05L10 3.5Z" stroke="currentColor" stroke-width="1.6" stroke-linejoin="round"/>
</svg>
