<svg width="24" height="24" viewBox="0 0 24 24" fill="none" xmlns="http://www.w3.org/2000/svg">
<g clip-path="url(#clip0_10_467)">
<rect width="24" height="24" fill="white"/>
<path d="M7.50636 2.2448C7.44002 2.1672 7.3612 2.10564 7.27442 2.06363C7.18765 2.02162 7.09462 2 7.00067 2C6.90672 2 6.8137 2.02162 6.72692 2.06363C6.64015 2.10564 6.56133 2.1672 6.49498 2.2448L2.20946 7.24443C2.07535 7.40089 2 7.61311 2 7.83438C2 8.05566 2.07535 8.26787 2.20946 8.42434C2.34358 8.5808 2.52548 8.66871 2.71516 8.66871C2.90483 8.66871 3.08673 8.5808 3.22085 8.42434L6.28642 4.84627V21.1667C6.28642 21.3877 6.36167 21.5997 6.49562 21.7559C6.62957 21.9122 6.81124 22 7.00067 22C7.1901 22 7.37178 21.9122 7.50573 21.7559C7.63967 21.5997 7.71493 21.3877 7.71493 21.1667V4.84627L10.7805 8.42434C10.9146 8.5808 11.0965 8.66871 11.2862 8.66871C11.4759 8.66871 11.6578 8.5808 11.7919 8.42434C11.926 8.26787 12.0013 8.05566 12.0013 7.83438C12.0013 7.61311 11.926 7.40089 11.7919 7.24443L7.50636 2.2448ZM16.5045 21.7667C16.6376 21.9164 16.8153 22 17.0002 22C17.1851 22 17.3628 21.9164 17.4959 21.7667L21.7814 16.9337C21.849 16.8578 21.903 16.767 21.9405 16.6667C21.978 16.5664 21.9982 16.4585 21.9999 16.3491C22.0016 16.2397 21.9848 16.1309 21.9505 16.0291C21.9162 15.9272 21.8651 15.8342 21.8 15.7555C21.7349 15.6767 21.6571 15.6136 21.5712 15.5699C21.4852 15.5261 21.3926 15.5026 21.2989 15.5006C21.2051 15.4986 21.1119 15.5181 21.0246 15.5582C20.9373 15.5982 20.8576 15.6578 20.79 15.7338L17.7145 19.2019V2.83643C17.7145 2.61543 17.6392 2.40348 17.5053 2.24722C17.3713 2.09095 17.1896 2.00316 17.0002 2.00316C16.8108 2.00316 16.6291 2.09095 16.4952 2.24722C16.3612 2.40348 16.286 2.61543 16.286 2.83643V19.2019L13.2118 15.7355C13.1446 15.6583 13.065 15.5974 12.9776 15.5563C12.8902 15.5152 12.7966 15.4948 12.7024 15.496C12.6081 15.4973 12.515 15.5204 12.4284 15.5638C12.3418 15.6073 12.2635 15.6703 12.1979 15.7493C12.1323 15.8282 12.0807 15.9216 12.0462 16.0239C12.0116 16.1262 11.9948 16.2355 11.9966 16.3454C11.9984 16.4554 12.0189 16.5638 12.0568 16.6645C12.0948 16.7652 12.1494 16.8561 12.2176 16.932L16.5045 21.7667Z" fill="black"/>
</g>
<defs>
<clipPath id="clip0_10_467">
<rect width="24" height="24" fill="white"/>
</clipPath>
</defs>
</svg>
