<svg width="24" height="24" viewBox="0 0 24 24" fill="none" xmlns="http://www.w3.org/2000/svg">
  <path d="M17.5 2.5H20.5C21.04 2.5 21.5 2.9527 21.5 3.5381V20.4619C21.5 21.0473 21.04 21.5 20.5 21.5H17.5C16.96 21.5 16.5 21.0473 16.5 20.4619V3.5381C16.5 2.9527 16.96 2.5 17.5 2.5Z" fill="currentColor" stroke="currentColor" stroke-linejoin="round"/>
  <path d="M10.5 10.5H13.5C13.992 10.5 14.5 10.9787 14.5 11.7139V20.2861C14.5 21.0213 13.992 21.5 13.5 21.5H10.5C10.008 21.5 9.5 21.0213 9.5 20.2861V11.7139C9.5 10.9787 10.008 10.5 10.5 10.5Z" fill="currentColor" stroke="currentColor" stroke-linejoin="round"/>
  <path d="M3.5 6.5H6.5C7.0667 6.5 7.4997 6.9415 7.5 7.4541V20.5459C7.4997 21.0585 7.0667 21.5 6.5 21.5H3.5C2.9333 21.5 2.5003 21.0585 2.5 20.5459V7.4541C2.5003 6.9415 2.9333 6.5 3.5 6.5Z" fill="currentColor" stroke="currentColor" stroke-linejoin="round"/>
</svg>
