<svg width="40" height="40" viewBox="0 0 40 40" fill="none" xmlns="http://www.w3.org/2000/svg">
<path d="M20 27.5V35M24.5 16.01V12.5C24.5 12.1022 24.658 11.7206 24.9393 11.4393C25.2206 11.158 25.6022 11 26 11C26.7956 11 27.5587 10.6839 28.1213 10.1213C28.6839 9.55871 29 8.79565 29 8C29 7.20435 28.6839 6.44129 28.1213 5.87868C27.5587 5.31607 26.7956 5 26 5H13.835M5 5L35 35M15.5 15.5V18.14C15.4997 18.6981 15.3437 19.2451 15.0496 19.7194C14.7554 20.1938 14.3348 20.5766 13.835 20.825L11.165 22.175C10.6652 22.4234 10.2446 22.8062 9.95042 23.2806C9.65628 23.7549 9.5003 24.3019 9.5 24.86V26C9.5 26.3978 9.65804 26.7794 9.93934 27.0607C10.2206 27.342 10.6022 27.5 11 27.5H27.5" stroke="currentColor" stroke-width="2.66667" stroke-linecap="round" stroke-linejoin="round"/>
</svg>
